<?xml version="1.0" encoding="utf-8"?>
<!-- Generator: Adobe Illustrator 16.0.0, SVG Export Plug-In . SVG Version: 6.00 Build 0)  -->
<!DOCTYPE svg PUBLIC "-//W3C//DTD SVG 1.1//EN" "http://www.w3.org/Graphics/SVG/1.1/DTD/svg11.dtd">
<svg version="1.1" id="Слой_1" xmlns="http://www.w3.org/2000/svg" xmlns:xlink="http://www.w3.org/1999/xlink" x="0px" y="0px"
	 width="289.657px" height="90.716px" viewBox="0 0 289.657 90.716" enable-background="new 0 0 289.657 90.716"
	 xml:space="preserve">
<g>
	<g>
		<g>
			<path fill="#48423B" d="M34.004,6.704c-0.241,0.438-0.971,2.764-5.766,3.755c-3.278,0.678-14.758,1.862-14.888,2.133
				c-0.031,0.066,0.388,0.788,0.477,1.311c0.454,2.657,0.905,11.536,1.035,11.613c0.287,0.167,4.197-1.745,6.889-2.05
				c3.67-0.416,8.925,1.774,9.871,8.022c1.475,9.743-6.353,13.913-10.69,14.645c-5.092,0.858-6.534-3.459-2.029-5.665
				c2.931-1.435,7.545-2.214,8.355-2.984c0.647-0.616,0.716-3.61,0.476-5.709c-0.606-5.291-3.703-7.374-7.349-6.92
				c-2.043,0.254-5.042,1.068-5.472,1.817c-0.536,0.935,0.016,4.438-0.105,6.564c-0.403,7.102-2.263,13.805-6.632,14.665
				c-4.37,0.857-4.913-5.422-3.41-9.567c0.54-1.491,4.436-6.64,5.769-9.639c1.352-3.042,0.271-10.02,0.256-11.308
				c-0.024-2.046-0.083-4.179-0.356-4.333c-0.346-0.196-1.834,0.286-2.462,0.434C4.263,14.368,1,16.471,1.125,19.011
				c0.125,2.539,1.133,2.796,1.669,3.235c0.536,0.44,0.659,1.363-0.404,0.798S0.037,21.555,0,19.224
				c-0.038-2.333,1.972-6.013,7.699-6.99c5.728-0.976,17.585-1.906,20.324-2.858c2.738-0.952,4.668-1.946,5.187-2.914
				C33.729,5.495,34.245,6.268,34.004,6.704z M10.462,30.233c-0.228-0.096-4.303,6.549-4.589,8.477
				c-1.049,7.051,0.104,8.309,1.895,7.784C9.331,46.035,10.462,30.233,10.462,30.233z M26.86,38.667
				c-0.175-0.192-5.67,1.791-6.986,2.622c-2.353,1.486-2.333,4.023,0.832,3.489C22.736,44.436,26.86,38.667,26.86,38.667z"/>
			<path fill="#48423B" d="M63.029,27.083c0.033,0.112-0.056,0.337-0.1,0.412c-1.296,2.213-4.149,3.362-5.261,3.886
				c-0.463,0.219-1.091,2.709-1.352,3.362c-1.082,2.71-1.914,5.203-3.544,6.176c-2.003,1.194-4.675,0.328-5.662-1.632
				c-0.652-1.294-0.911-5.093-1.024-5.167c-0.272-0.18-4.876,0.836-5.275,1.3c-0.466,0.541-0.118,3.723-0.097,4.164
				c0.255,5.419-3.807,4.375-3.794,2.239c0.016-2.62,0.135-4.396,0.25-5.618c-0.15,0.039-0.226,0.06-0.376,0.1
				c-1.68,0.513-1.785-0.86,0.514-1.506c0.027-0.218,0.04-0.325,0.067-0.543c0.292-2.721,0.418-6.354,0.697-7.82
				c0.041-0.215,0.283-0.843,0.504-0.967c1.083-0.604,2.337-0.236,2.494,0.902c0.248,1.794,0.02,4.77-0.096,6.75
				c-0.021,0.413-0.03,0.618-0.051,1.031c1.417-0.331,4.633-0.882,5.319-1.791c0.649-0.859,0.856-4.48,2.829-6.871
				c0.809-0.98,2.055-1.722,3.339-2.021c0.38-0.088,1.159-0.185,1.461-0.134c0.754,0.131,1.123,0.389,1.58,0.879
				c0.259,0.278,0.528,0.554,0.917,0.692c0.251,0.09,0.482,0.344,0.653,0.546c0.512,0.606,0.738,1.292,0.83,2.083
				c0.127,1.097,0.002,2.332,0.078,2.347c0.848,0.182,2.411-1.103,3.513-2.134c0.433-0.405,0.628-0.69,0.829-0.894
				c0.174-0.178,0.489-0.133,0.628-0.067C63.022,26.845,62.999,26.979,63.029,27.083z M55.813,31.336
				c-1.447-0.312-2.455-1.507-2.702-2.568c-0.258-1.105-0.239-2.734,1.269-3.672c0,0-0.409-0.931-1.075-0.76
				c-1.951,0.5-3.293,2.512-3.627,6.287c-0.203,2.288,0.177,5.543,0.421,6.713c0.127,0.606,0.975,2.687,1.904,2.434
				c0.884-0.241,1.7-1.429,2.084-2.265c0.669-1.457,1.306-3.011,1.952-5.085C56.139,32.101,56.212,31.422,55.813,31.336z
				 M56.806,27.788c-0.062-0.526-0.164-0.834-0.289-1.209c-0.177-0.533-0.747-0.884-1.216-0.747c-0.56,0.163-0.805,0.679-0.822,0.9
				c-0.105,1.319,0.164,1.762,0.837,2.481c0.224,0.24,0.914,0.652,1.285,0.558C56.881,29.7,56.838,28.052,56.806,27.788z"/>
			<path fill="#48423B" d="M57.915,53.244c-0.054-3.451,0.576-6.187,1.626-9.982c0.698-2.522,1.868-5.795,2.397-8.502
				c0.63-3.226,1.411-10.6,1.411-10.6c-0.002-0.001,0.314-1.281,0.804-1.644c0.586-0.434,1.406-0.136,1.76,0.391
				c0.111,0.166,0.498,1.014,0.498,1.014c0.116-0.207,0.174-0.312,0.289-0.519c0.539-0.944,1.587-2.089,2.998-2.35
				c1.606-0.296,2.617,0.146,3.587,1.072c1.988,1.896,2.074,5,2.077,7.526c0,0.437,0.038,0.927,0.038,0.927
				c0.104,0.079,0.612-0.199,1.159-0.553c1.128-0.729,2.638-3.294,3.009-4.35c0.13-0.37,0.632-0.655,0.876-0.564
				c0.416,0.155,0.077,0.924-0.049,1.109c-0.273,0.4-0.933,2.032-2.92,4.299c-0.789,0.9-1.565,1.458-1.876,1.683
				c-0.294,0.212-0.441,0.781-0.487,0.977c-0.276,1.179-0.822,2.967-1.677,4.11c-1.858,2.481-5.562,2.71-6.208,0.407
				c-0.649-2.311,2.76-4.487,4.102-5.662c0.173-0.151,0.35-0.346,0.378-0.567c0.259-2.006,0.448-2.802,0.344-4.918
				c-0.141-2.864-0.593-4.073-2.146-3.917c-1.213,0.121-2.5,1.94-3.059,3.108c-1.004,2.097-1.025,13.908-0.945,15.297
				c0.202,3.524,0.609,9.846-1.071,14.075c-1.069,2.689-2.41,3.205-3.752,3.361C58.255,58.804,57.937,54.658,57.915,53.244z
				 M62.558,50.876c0.078-3.875,0.095-7.169-0.191-9.716c-0.02-0.176-0.086-0.344-0.201-0.51c-0.072,0.044-0.108,0.063-0.18,0.107
				c-1.329,2.686-2.24,5.108-2.729,8.232c-0.433,2.764-0.446,8.189,1.688,7.941C62.568,56.742,62.529,52.302,62.558,50.876z
				 M71.82,35.053c0.213-0.775,0.152-1.881,0.047-1.96c-0.208-0.157-1.434,0.763-2.129,1.412c-1.1,1.027-1.902,2.505-0.903,2.937
				C70.393,38.114,71.431,36.467,71.82,35.053z"/>
			<path fill="#48423B" d="M80.539,35.613c-0.662-1.49-0.906-4.369-0.75-5.79c0.268-2.444,0.893-5.222,3.317-7.907
				c0.851-0.941,2.126-1.629,3.421-1.87c0.384-0.071,1.164-0.135,1.463-0.069c0.747,0.164,1.104,0.438,1.539,0.947
				c0.247,0.289,0.503,0.576,0.885,0.733c0.247,0.1,0.464,0.365,0.625,0.575c0.485,0.63,0.68,1.322,0.737,2.117
				c0.079,1.101-0.1,2.333-0.025,2.352c0.839,0.218,2.454-0.997,3.599-1.979c0.45-0.386,0.658-0.66,0.866-0.854
				c0.182-0.169,0.495-0.113,0.631-0.041c0.12,0.063,0.091,0.196,0.117,0.301c0.028,0.113-0.072,0.333-0.12,0.406
				c-1.4,2.156-4.289,3.176-5.422,3.651c-0.472,0.198-1.208,2.657-1.498,3.298c-1.2,2.659-2.14,5.115-3.809,6.013
				C84.063,38.602,81.428,37.618,80.539,35.613z M87.576,34.146c0.731-1.425,1.437-2.952,2.174-4.995
				c0.114-0.316,0.215-0.989-0.179-1.093c-1.43-0.375-2.382-1.616-2.582-2.686c-0.208-1.116-0.117-2.738,1.429-3.608
				c0,0-0.367-0.95-1.039-0.81c-1.97,0.413-3.397,2.363-3.897,6.12c-0.303,2.277-0.071,5.546,0.123,6.726
				c0.1,0.612,0.854,2.728,1.792,2.517C86.289,36.114,87.156,34.964,87.576,34.146z M90.721,24.559
				c-0.039-0.528-0.127-0.843-0.235-1.222c-0.153-0.541-0.707-0.912-1.181-0.797c-0.565,0.138-0.834,0.641-0.861,0.861
				c-0.163,1.313,0.086,1.765,0.726,2.514c0.213,0.25,0.883,0.694,1.258,0.616C90.71,26.472,90.741,24.824,90.721,24.559z"/>
			<path fill="#48423B" d="M119.448,27.514c-0.069,4.549,0.978,8.551,2.885,10.159c1.313,1.107,1.894,1.264,2.513,1.38
				c0.81,0.151,0.683,0.87-0.021,0.929c-0.985,0.081-2.148-0.111-4.749-1.526c-1.887-1.027-4.74-4.24-5.019-10.996
				c-0.059-1.413,0.112-4.338,0.112-4.338c-0.133-0.082-2.561,1.392-3.76,1.623c-6.669,1.284-8.07-2.437-7.534-8.288
				c0.159-1.745,0.721-6.819,1.221-9.316c0.437-2.18,0.353-5.594-1.39-5.499c-2.142,0.116-6.971,2.753-7.447,3.093
				c-0.477,0.341-1.948,0.701-0.715-0.263c0.804-0.627,4.471-2.714,6.488-3.314c2.016-0.6,6.31-1.839,7.146,2.146
				c0.322,1.533-0.187,9.006-0.466,10.862c-0.582,3.872-2.657,10.751,2.808,9.82c1.101-0.188,3.25-1.046,3.75-1.93
				c2.162-3.812,3.378-14.105,4.767-17.025c2.735-5.75,7.962-7.385,7.43-0.57c-0.338,4.337-5.72,10.707-7.402,14.365
				C119.256,20.586,119.493,24.556,119.448,27.514z M120.344,16.96c0.17,0.074,6.058-9.038,6.385-12.257
				c0.422-4.152-1.458-4.107-3.604,0.717C122.237,7.418,120.344,16.96,120.344,16.96z"/>
			<path fill="#48423B" d="M139.499,32.719c-0.368-1.701,0.682-3.983,0.651-7.695c-0.001-0.132-0.015-0.304-0.148-0.354
				c-0.093-0.034-0.29,0.011-0.434,0.183c-0.779,0.933-1.658,2.544-2.228,3.512c-0.577,0.979-0.843,1.53-1.314,2.45
				c-0.771,1.505-1.54,2.538-2.389,3.306c-0.796,0.723-1.986,1.099-2.412,1.194c-2.026,0.449-3.251-0.595-3.279-1.472
				c-0.105-3.29,0.81-6.972,1.31-9.667c0.221-1.189,0.927-4.149,1.389-5.376c0.097-0.256,0.327-0.716,1.007-0.86
				c0.68-0.146,1.209-0.179,1.519,0.367c0.278,0.49,0.411,1.726,0.377,2.206c-0.182,2.575-0.934,6.262-1.305,8.152
				c-0.275,1.399-0.512,4.013-0.155,4.425c0.185,0.214,0.391,0.204,0.625,0.076c0.866-0.47,1.433-1.271,2.346-2.869
				c0.753-1.319,2.251-3.968,3.393-5.875c0.426-0.711,1.459-3.116,2.578-4.621c0.291-0.39,0.677-0.932,0.918-1.332
				c0.241-0.399,1.313-0.471,1.604-0.228c0.319,0.267,0.646,0.713,0.639,1.146c-0.081,4.811-0.339,6.378-0.882,9.637
				c-0.432,2.594-0.558,3.67,0.448,4.196c2.347,1.229,6.26-5.942,7.124-9.008c0.107-0.382,0.307-0.788,0.586-0.968
				c0.074-0.049,0.162-0.018,0.291,0.001c0.164,0.025,0.35,0.19,0.339,0.357c-0.026,0.464-0.294,0.936-0.446,1.321
				c-0.137,0.349-2.066,5.159-3.639,7.364c-2.065,2.898-4.784,3.61-6.87,2.757C140.055,34.603,139.658,33.454,139.499,32.719z"/>
			<path fill="#48423B" d="M153.546,34.662c-0.941-0.542-1.803-1.696-2.225-3.112c-0.658-2.212-0.604-5.054,0.576-7.242
				c1.113-2.066,2.717-4.797,5.992-6.343c0.824-0.389,1.434-0.587,2.398-0.492c1.254,0.124,2.517,1.205,2.391,2.388
				c-0.057,0.527-0.163,0.904-0.459,1.185c-0.275,0.259-0.457,0.261-0.59,0.209c-0.277-0.111-0.303-0.254-0.18-0.71
				c0.127-0.465,0.357-1.097,0.023-1.324c-0.527-0.36-1.232-0.296-2.094,0.095c-2.141,0.973-3.664,5.118-4.086,8.16
				c-0.365,2.646-0.139,4.505,1.039,5.492c1.277,1.071,3.182,1.263,5.361-0.222c2.213-1.507,4.975-6.253,5.307-7.08
				c0.213-0.531,0.713-1.134,1.088-0.809c0.215,0.185,0.05,0.698-0.08,1.144c-0.369,1.26-3.428,6.301-5.475,7.69
				c-1.184,0.802-2.01,1.841-4.615,1.993C156.259,35.782,154.777,35.37,153.546,34.662z"/>
			<path fill="#48423B" d="M167.554,35.449c-0.326-0.231-0.51-0.592-0.545-0.945c-0.357-3.475,0.326-5.165,0.746-8.021
				c0.059-0.396,1.107-6.253,1.412-7.078c0.271-0.734,0.971-1.354,1.709-1.672c0.195-0.084,0.781,0.072,0.97,0.207
				c0.655,0.466,0.317,3.682,0.29,4.521c-0.018,0.574-0.006,1.199,0.09,1.683c0.109,0.558,0.568,0.674,1.516-0.391
				c1.533-1.719,2.746-3.082,3.889-3.876c1.252-0.87,2.641-1.1,3.252-0.836c1.693,0.73,1.971,2.061,1.533,3.784
				c-0.111,0.434-0.516,1.542-0.291,1.979c0.209,0.404,0.945-0.18,1.234-0.431c0.506-0.439,0.945-1.063,1.391-1.57
				c0.826-0.943,2.504-2.36,3.697-2.815c1.332-0.509,3.07,0.206,3.445,1.967c0.287,1.345-0.809,6.234-0.912,7.335
				c-0.121,1.275-0.273,2.619-0.369,3.874c-0.133,1.729,0.797,2.392,2.045,1.142c0.613-0.615,2.143-2.883,3.281-4.798
				c0.43-0.725,1.703-3.243,2.193-3.929c0.15-0.21,0.451-0.108,0.629,0.042c0.063,0.055,0.087,0.138,0.082,0.227
				c-0.012,0.176,0.066,0.273-0.031,0.441c-0.346,0.6-2.266,4.146-2.586,4.698c-1.639,2.835-3.299,5.34-5.086,5.44
				c-0.332,0.018-0.674,0.048-1.15,0.021c-1.617-0.092-3.129-1.373-3.355-2.397c-0.273-1.245,0.127-3.402,0.568-5.323
				c0.313-1.354,0.791-3.595,1.215-4.581c0.457-1.061,0.811-2.397,0.389-2.632c-1.16-0.647-4.4,3.319-5.574,4.582
				c-0.355,0.381-0.798,1.202-1.047,1.672c-0.865,1.634-1.232,4.248-1.578,6.209c-0.082,0.465-0.486,1.006-0.73,1.339
				c-0.322,0.441-1.75,0.464-2.166,0.352c-0.697-0.189-0.955-0.89-0.951-1.275c0.029-3.048,1.281-7.956,2.006-11.375
				c0.121-0.57,0.287-1.197,0.457-1.616c0.126-0.314-0.117-0.67-0.957-0.35c-1.68,0.638-4.846,4.859-5.246,5.418
				c-0.457,0.642-0.91,1.207-1.08,1.953c-0.637,2.366-0.951,3.549-1.58,5.916c-0.156,0.438-0.506,0.841-0.846,1.125
				c-0.207,0.172-0.541,0.302-0.82,0.331C168.273,35.834,167.882,35.678,167.554,35.449z"/>
			<path fill="#48423B" d="M197.873,34.458c-0.424-1.575-0.221-4.457,0.152-5.837c0.643-2.372,1.689-5.024,4.498-7.303
				c0.984-0.8,2.35-1.279,3.666-1.317c0.391-0.012,1.172,0.044,1.457,0.156c0.711,0.276,1.023,0.604,1.373,1.174
				c0.199,0.324,0.406,0.648,0.76,0.861c0.229,0.138,0.406,0.433,0.533,0.665c0.383,0.694,0.467,1.414,0.4,2.207
				c-0.092,1.101-0.457,2.286-0.387,2.315c0.797,0.345,2.578-0.605,3.861-1.397c0.504-0.312,0.754-0.55,0.99-0.71
				c0.205-0.139,0.504-0.035,0.627,0.058c0.109,0.081,0.061,0.208,0.07,0.316c0.01,0.116-0.123,0.316-0.182,0.381
				c-1.709,1.913-4.732,2.477-5.924,2.771c-0.496,0.123-1.6,2.44-1.984,3.03c-1.596,2.442-2.904,4.722-4.691,5.352
				C200.896,37.954,198.441,36.576,197.873,34.458z M205.054,34.093c0.943-1.297,1.875-2.693,2.917-4.601
				c0.161-0.295,0.366-0.943-0.007-1.106c-1.355-0.591-2.105-1.966-2.139-3.053c-0.033-1.134,0.307-2.726,1.969-3.347
				c0,0-0.217-0.994-0.902-0.958c-2.008,0.104-3.721,1.811-4.793,5.444c-0.65,2.203-0.926,5.472-0.918,6.666
				c0.004,0.62,0.426,2.824,1.385,2.76C203.48,35.837,204.513,34.837,205.054,34.093z M209.638,25.107
				c0.043-0.528,0.003-0.855-0.045-1.248c-0.068-0.558-0.557-1.013-1.043-0.972c-0.58,0.049-0.922,0.509-0.984,0.722
				c-0.363,1.271-0.186,1.757,0.33,2.596c0.172,0.28,0.768,0.823,1.15,0.804C209.333,26.995,209.617,25.371,209.638,25.107z"/>
			<path fill="#48423B" d="M214.072,38.171c-0.314-0.251-0.474-0.622-0.488-0.977c-0.143-3.49,0.645-5.136,1.24-7.962
				c0.082-0.392,1.49-6.171,1.846-6.978c0.316-0.717,1.053-1.289,1.811-1.563c0.199-0.072,0.775,0.121,0.955,0.268
				c0.625,0.505,0.092,3.691,0.014,4.527c-0.055,0.571-0.082,1.197-0.017,1.686c0.075,0.563,0.526,0.708,1.54-0.296
				c1.639-1.622,2.932-2.909,4.123-3.632c1.303-0.79,2.709-0.933,3.303-0.633c1.648,0.834,1.842,2.18,1.299,3.873
				c-0.137,0.426-0.607,1.507-0.408,1.957c0.184,0.417,0.951-0.118,1.256-0.352c0.533-0.408,1.008-1.003,1.484-1.482
				c0.885-0.891,2.65-2.203,3.871-2.583c1.363-0.425,3.057,0.394,3.322,2.175c0.203,1.361-1.191,6.176-1.363,7.269
				c-0.199,1.265-0.436,2.594-0.609,3.84c-0.238,1.718,0.648,2.435,1.973,1.264c0.65-0.575,2.322-2.741,3.578-4.583
				c0.477-0.697,1.902-3.133,2.434-3.787c0.164-0.2,0.457-0.079,0.625,0.083c0.061,0.059,0.08,0.142,0.068,0.23
				c-0.021,0.175,0.049,0.278-0.059,0.439c-0.383,0.577-2.52,3.998-2.873,4.529c-1.813,2.729-3.623,5.128-5.418,5.116
				c-0.332-0.002-0.674,0.008-1.148-0.048c-1.611-0.193-3.047-1.565-3.211-2.601c-0.197-1.26,0.34-3.392,0.9-5.282
				c0.395-1.331,1.008-3.537,1.492-4.496c0.52-1.031,0.957-2.342,0.549-2.604c-1.119-0.717-4.6,3.042-5.852,4.229
				c-0.377,0.358-0.867,1.151-1.146,1.605c-0.965,1.578-1.496,4.166-1.963,6.103c-0.109,0.458-0.545,0.969-0.81,1.287
				c-0.349,0.419-1.778,0.357-2.187,0.219c-0.687-0.231-0.897-0.948-0.869-1.333c0.217-3.04,1.765-7.859,2.701-11.227
				c0.156-0.562,0.361-1.178,0.557-1.586c0.146-0.305-0.076-0.675-0.936-0.408c-1.719,0.533-5.142,4.549-5.574,5.083
				c-0.498,0.612-0.984,1.15-1.199,1.885c-0.781,2.323-1.17,3.482-1.943,5.807c-0.184,0.427-0.559,0.807-0.916,1.068
				c-0.218,0.16-0.555,0.269-0.838,0.279C214.766,38.597,214.384,38.421,214.072,38.171z"/>
			<path fill="#48423B" d="M289.113,42.808c-0.275,0.26-0.768,0.381-1.084,0.286c-0.543-0.161-0.83-0.525-0.896-0.978
				c-0.102-0.686,0.203-1.316,0.214-1.936c0.015-0.798-1.274-1.635-2.894-1.66c-2.404-0.038-7.6,3.019-16.4,4.927
				c-2.207,0.479-8.959,1.902-10.508-1.319c-1.037-2.158,1.914-7.313,1.914-7.313c-0.033-0.027-1.666,1.006-2.227,1.193
				c-0.922,0.307-1.959,0.385-1.959,0.385c-0.637,1.381-1.205,2.639-1.744,3.366c-1.318,1.777-1.936,2.362-3.76,2.685
				c-1.428,0.252-3.236-0.64-4.342-2.145c-0.363-0.492-1.611-3.555-0.885-6.976c0.756-3.55,2.141-7.092,3.072-8.555
				c0.129-0.2,0.502-0.736,0.75-0.797c1.207-0.293,2.596,0.445,2.16,1.541c-0.686,1.722-1.158,3.729-1.789,5.599
				c-0.33,0.975-0.662,1.929-0.877,2.914c-0.432,1.967-1.184,3.416-0.41,5.607c0.313,0.889,1.313,1.025,1.867,1.191
				c1.064,0.319,2.307-0.578,2.948-1.378c1.118-1.396,1.335-2.22,1.478-3.227c0.02-0.132-0.166-0.202-0.709-0.501
				c-0.541-0.298-1.049-0.635-1.475-0.966c-0.652-0.511-1.014-1.478-0.906-2.266c0.139-1.006,0.486-1.622,1.359-2.041
				c0.627-0.3,1.585-0.138,2.174,0.214c1.264,0.757,1.09,2.309,1.166,3.515c0.016,0.225,0.002,0.981,0.002,0.981
				c0.262,0.216,1.148,0.211,2.064-0.104c1.436-0.492,1.758-0.991,2.477-1.866c0.217-0.272,0.327-0.408,0.545-0.679
				c0.877-1.924,1.711-3.931,2.215-4.893c0.104-0.196,0.512-0.724,0.76-0.78c1.213-0.27,2.309,0.448,2.133,1.583
				c-0.28,1.791-1.627,4.447-2.307,6.305c-0.836,2.282-2.387,5.444-1.895,6.637c0.744,1.805,6.712,0.574,10.669-0.396
				c3.94-0.964,9.597-3.596,12.519-3.416c2.24,0.138,3.891,0.833,4.682,2.4c0.176,0.348,0.305,0.699,0.389,1.064
				C289.751,41.662,289.599,42.35,289.113,42.808z M254.207,32.579c-0.135-0.453-0.553-0.972-1.07-0.73
				c-0.574,0.268-0.719,1.149-0.293,1.744c0.574,0.8,1.486,1.374,1.621,1.3C254.673,34.778,254.425,33.318,254.207,32.579z"/>
		</g>
	</g>
	<g>
		<path fill="#48423B" d="M55.727,60.053c-0.273,0.692-1.485,3.38-3.788,3.208c-2.849-0.203-3.576-2.977-4.455-3.932
			c-0.879-0.953-2.728-0.809-2.667,1.359c0.061,2.166,3.515,4.855,3.788,7.918c0.273,3.064-0.364,5.607-1.03,7.572
			c-0.303,0.867-1.091,1.937-2,2.428c-1.243,0.693-2.818,0.52-3.606-0.087c-0.545-0.404-0.818-1.069-1.091-1.995
			c-0.425-1.443-0.364-3.467,0.364-5.172c0.515-1.244,1.151-2.572,2.757-3.612c-0.333,0.087-0.727,0.202-1.152,0.347
			c-3.333,1.098-5.575,2.195-7.484,2.774c-1.97,0.577-3.364,0.81-4.333,0.259c-1.637-0.924-2.212-2.369-2.273-2.918
			c-0.061-0.375,0.03-1.07,0.424-1.156c0.424-0.086,0.879,0.289,0.939,0.52c0.272,0.781,0.697,2.168,1.758,2.688
			c1.061,0.521,2.03,0.348,3.272,0c2.849-0.809,5.97-2.513,8.606-3.004c0.788-0.145,1.728-0.289,2.303-0.174
			c0.787,0.057,1.576,0.752,1.515,1.531c-0.03,0.348-0.091,0.578-0.273,0.781c-0.182,0.173-0.272,0.173-0.363,0.145
			c-0.182-0.088-0.182-0.145-0.122-0.463c0.091-0.318,0.212-0.723,0-0.867c-0.333-0.23-0.757-0.174-1.303,0.086
			c-1.333,0.693-2.242,3.383-2.485,5.377c-0.212,1.733-0.333,3.727,0.424,4.363c0.819,0.693,2.577-0.693,3.334-2.167
			c0.788-1.503,1.515-4.653,1.152-7.169c-0.364-2.57-3.728-5.981-3.728-8.063c0-1.531,1.212-3.265,3.424-2.658
			c2.212,0.607,2.97,4.045,4.758,4.045c1.606,0,2-1.184,2.697-2.195C55.545,59.156,55.969,59.445,55.727,60.053z"/>
		<path fill="#48423B" d="M46.391,87.074c0.243-2.254,0.849-3.958,1.788-6.357c0.636-1.59,1.576-3.613,2.121-5.346
			c0.606-2.082,1.667-6.938,1.606-6.792c0.091-0.404,0.272-0.78,0.606-1.013c0.424-0.23,0.879,0,1.061,0.377
			c0.061,0.115,0.243,0.693,0.243,0.693l0.212-0.318c0.394-0.577,1.091-1.271,2-1.33c1.03-0.114,1.606,0.262,2.152,0.926
			c1.121,1.357,0.97,3.353,0.848,5.029c-0.03,0.289-0.03,0.606-0.03,0.606c0.06,0.058,0.394-0.087,0.758-0.29
			c0.757-0.404,1.757-1.965,2.121-2.658c0.091-0.26,0.424-0.404,0.575-0.318c0.273,0.116,0.031,0.607-0.09,0.723
			c-0.182,0.318-0.667,1.271-2.061,2.631c-0.545,0.549-1.061,0.838-1.273,0.982c-0.212,0.115-0.333,0.463-0.363,0.607
			c-0.364,0.809-0.697,1.82-1.303,2.57c-1.455,1.504-3.697,1.418-3.939-0.145c-0.273-1.561,1.818-2.773,2.939-3.41
			c0.121-0.115,0.242-0.201,0.272-0.346c0.303-1.301,0.455-1.793,0.515-3.18c0.091-1.879-0.121-2.688-1.091-2.688
			c-0.757,0-1.666,1.098-2.09,1.82c-0.758,1.301-1.576,8.959-1.606,9.885c-0.152,2.34-0.273,6.445-1.667,9.074
			c-0.879,1.676-1.788,1.908-2.667,1.908C46.179,90.716,46.3,88,46.391,87.074z M49.542,85.89c0.333-2.516,0.576-4.654,0.576-6.329
			c0-0.116-0.03-0.231-0.091-0.347l-0.121,0.057c-1.031,1.648-1.788,3.15-2.333,5.145c-0.485,1.764-0.909,5.289,0.484,5.289
			C49.118,89.705,49.421,86.814,49.542,85.89z M56.482,76.236c0.182-0.49,0.212-1.213,0.151-1.271
			c-0.121-0.116-0.939,0.405-1.424,0.78c-0.758,0.607-1.363,1.503-0.758,1.85C55.391,78.145,56.148,77.132,56.482,76.236z"/>
		<path fill="#48423B" d="M61.936,77.74c-0.879-2.139-0.333-5.693,1.818-8.496c1.03-1.359,2.939-2.516,4.576-2.283
			c0.606,0.057,0.97,0.578,0.97,1.185c0,0.548-0.061,0.866-0.364,1.358c-0.182,0.174-0.273,0.174-0.394,0.174
			c-0.758,0,0.364-1.822-0.272-1.937c-0.939-0.29-1.939,0.173-2.849,1.415c-1.606,2.227-1.909,5.723-1.455,7.775
			c0.121,0.605,0.879,0.693,1.272,0.404c1.182-0.867,1.849-2.457,2.909-4.336c0.394-0.635,0.758-1.301,1.091-1.936
			c0.121-0.202,0.212-0.434,0.333-0.665c0.152-0.896,0.091-1.329,0.545-1.733c0.243-0.232,0.607-0.262,0.819,0
			c0.121,0.23,0.243,0.434,0.243,0.693c0.091,1.156,0.091,2.313,0.091,3.467c-0.03,1.271-0.03,2.545-0.03,3.844
			c0,0.434,0.242,0.695,0.545,0.781c1.637,0.434,3.879-3.844,4.485-5.896c0.061-0.26,0.182-0.461,0.364-0.635
			c0.061-0.029,0.091-0.029,0.182,0c0.122,0,0.212,0.115,0.212,0.23c-0.03,0.318-0.182,0.607-0.273,0.867
			c-0.091,0.231-1.273,3.382-2.273,4.826c-1.303,1.908-3,2.342-4.364,1.793c-0.787-0.318-1.151-1.359-1.211-2.111
			c-0.03-0.375-0.061-0.75-0.061-1.097c0-0.491,0.03-0.983,0-1.475c0-0.146-0.091-0.231-0.182-0.231
			c-0.242,0-0.394,0.26-0.424,0.318c-0.909,1.936-1.879,4.566-3.818,4.913C63.451,79.126,62.391,78.549,61.936,77.74z"/>
		<path fill="#48423B" d="M76.48,78.722c-0.212-0.145-0.333-0.375-0.364-0.606c-0.272-2.283,0.121-3.382,0.333-5.261
			c0.03-0.26,0.576-4.104,0.757-4.652c0.152-0.491,0.576-0.896,1.031-1.127c0.121-0.059,0.484,0.029,0.606,0.115
			c0.424,0.289,0.272,2.399,0.272,2.947c0,0.377,0.061,0.724,0.091,1.1c0.151,0.404,0.303,0.434,0.939-0.289
			c0.909-1.271,1.637-2.082,2.333-2.631c0.758-0.606,1.606-0.809,2-0.635c1.122,0.404,1.273,1.271,1.061,2.426
			c-0.061,0.29-0.273,1.012-0.122,1.301c0.152,0.262,0.576-0.144,0.758-0.316c0.303-0.318,0.545-0.723,0.818-1.069
			c0.485-0.665,1.485-1.62,2.212-1.966c0.818-0.375,1.879,0,2.212,1.156c0.212,0.895-0.303,4.074-0.303,4.826
			c-0.061,0.867-0.061,1.705-0.091,2.543c0,1.156,0.576,1.532,1.333,0.665c0.363-0.435,1.242-1.966,1.879-3.267
			c0.242-0.49,0.939-2.166,1.212-2.658c0.091-0.145,0.273-0.145,0.394,0c0.061,0.029,0.061,0.086,0.061,0.145
			c0,0.115,0.061,0.174,0,0.289c-0.182,0.434-1.243,2.804-1.424,3.18c-0.909,1.936-1.849,3.641-3,3.756
			c-0.212,0.029-0.424,0.059-0.728,0.059c-1.031,0-2.031-0.781-2.212-1.445c-0.213-0.809-0.03-2.225,0.181-3.498
			c0.152-0.895,0.364-2.369,0.606-3.033c0.243-0.723,0.425-1.59,0.152-1.734c-0.758-0.375-2.637,2.313-3.333,3.18
			c-0.212,0.26-0.455,0.809-0.606,1.127c-0.485,1.127-0.606,2.773-0.819,4.104c-0.03,0.318-0.242,0.665-0.424,0.896
			c-0.182,0.346-1.091,0.346-1.364,0.289c-0.455-0.116-0.636-0.55-0.636-0.811c-0.121-2.051,0.606-5.23,0.97-7.484
			c0.06-0.375,0.182-0.723,0.242-1.07c0.122-0.23-0.091-0.434-0.606-0.201c-1.03,0.463-2.909,3.295-3.151,3.67
			c-0.273,0.434-0.545,0.81-0.637,1.301l-0.878,3.9c-0.091,0.289-0.303,0.521-0.516,0.752c-0.151,0.115-0.333,0.203-0.515,0.232
			C76.935,78.954,76.692,78.867,76.48,78.722z"/>
		<path fill="#48423B" d="M96.388,77.855c-0.273-0.289-1.303-2.168-1.122-4.451c0.183-2.369,0.728-4.768,1.213-5.809
			c0.061-0.145,0.242-0.52,0.394-0.578c0.727-0.318,1.636,0.059,1.454,0.811c-0.272,1.184-0.394,2.514-0.636,3.785
			c-0.121,0.664-0.242,1.301-0.303,1.966c-0.091,1.329-0.455,2.312,0.212,3.67c0.273,0.548,0.909,0.548,1.273,0.606
			c0.697,0.115,1.394-0.578,1.727-1.156c0.576-1.012,0.637-1.561,0.637-2.225c0-0.088-0.122-0.115-0.485-0.26
			c-0.364-0.145-0.697-0.318-1-0.492c-0.455-0.289-0.758-0.867-0.758-1.387c0-0.664,0.151-1.098,0.667-1.445
			c0.364-0.26,0.97-0.23,1.364-0.058c0.849,0.376,0.879,1.388,1.03,2.167c0.03,0.146,0.091,0.637,0.091,0.637
			c0.181,0.115,0.424,0.086,1.061-0.029c1-0.174,1.849-0.578,2.485-1.676c0.212-0.348,0.424-0.811,0.576-0.926
			c0.121-0.115,0.303-0.115,0.394,0c0.121,0.029,0.121,0.145,0.121,0.232c0.03,0.086-0.061,0.201-0.091,0.26
			c-1.485,2.514-2.394,2.514-4.243,2.773c-0.212,0.029-0.242,0.174-0.242,0.174c-0.273,0.954-0.515,1.821-0.788,2.342
			c-0.667,1.271-1,1.705-2.121,2.08C98.418,79.156,97.206,78.751,96.388,77.855z M101.207,72.076
			c-0.122-0.289-0.424-0.578-0.728-0.377c-0.333,0.232-0.364,0.811-0.03,1.156c0.424,0.492,1.03,0.752,1.121,0.694
			C101.691,73.433,101.418,72.537,101.207,72.076z"/>
		<path fill="#48423B" d="M107.417,78.52c-0.424-0.261-0.818-0.954-0.97-1.329c-0.637-1.734-0.152-4.075,0.576-5.809
			c0.515-1.273,1.606-2.689,2.485-3.324c1.242-0.838,2.364-1.185,3.243-0.317c1.151,1.126-0.182,2.745-1.394,3.757
			c-0.758,0.635-1.667,1.328-2.455,1.82c-0.273,0.203-0.394,0.463-0.424,0.779c0,0.578-0.03,1.07,0.03,1.85
			c0,0.637,0.303,1.619,0.939,1.85c1.727,0.607,4.121-2.139,5.364-4.479c0.455-0.838,0.606-1.59,0.818-1.791
			c0.272-0.261,0.454-0.117,0.484-0.088c0.061,0.088,0.061,0.232,0.031,0.377c-0.182,0.491-0.394,0.838-0.728,1.588
			c-0.242,0.55-0.545,1.301-1,2.024c-1.273,1.937-2.333,3.005-4.243,3.468C109.599,79.041,108.205,79.011,107.417,78.52z
			 M110.448,71.41c0.636-0.577,1.242-1.011,1.667-1.762c0.394-0.607,0.212-1.301-0.303-1.561c-0.818-0.404-1.637,0.346-2.031,0.924
			c-0.667,0.867-0.878,1.504-1.182,2.516c-0.061,0.145-0.182,0.722-0.03,0.809C108.902,72.537,109.842,71.902,110.448,71.41z"/>
		<path fill="#48423B" d="M116.538,78.433c-0.273-0.288-1.303-2.139-1.122-4.451c0.03-0.895,0.606-5.664,2-9.826
			c0.637-1.936,1.939-5.404,3.667-7.051c0.879-1.07,2.424-1.793,3.182-1.33c2.182,1.215-1.576,9.683-4.879,13.93
			c0,0-0.818,0.781-1.03,1.938c-0.121,0.665-0.242,1.301-0.303,1.965c-0.091,1.33-0.122,2.313,0.212,3.814
			c0.03,0.375,0.394,0.953,0.758,1.012c0.697,0.116,1.394-0.578,1.727-1.156c0.758-1.301,0.939-2.109,1.242-3.959
			c0-0.086-0.121-0.115-0.484-0.26c-0.364-0.145-0.697-0.318-1-0.492c-0.455-0.289-0.758-0.867-0.758-1.387
			c0-0.664,0.151-1.098,0.667-1.445c0.363-0.26,0.97-0.23,1.363-0.057c0.849,0.375,0.879,1.387,1.03,2.166l0.091,0.521
			c0,0,0.424,0,0.606,0c0.272-0.029,0.515-0.116,0.788-0.203c0.757-0.23,1.151-0.693,1.545-1.127
			c0.303-0.348,0.424-0.492,0.576-0.606c0.121-0.116,0.303-0.116,0.394,0c0.121,0.029,0.121,0.144,0.121,0.231
			c0.03,0.086-0.061,0.202-0.091,0.26c-0.879,1.039-1.849,1.936-2.939,2.109c-0.212,0.059-0.394,0.059-0.545,0.087
			c-0.273,0.029-0.394,0.173-0.394,0.173c-0.485,2.082-1.122,3.555-1.394,4.076c-0.667,1.271-1,1.705-2.121,2.08
			C118.568,79.734,117.356,79.33,116.538,78.433z M119.931,67.595c1.183-1.994,1.819-2.832,2.698-4.941
			c0.424-0.982,1.939-5.288,1.545-5.896c-0.364-0.578-1.212-0.259-1.576,0c-0.727,0.55-1.424,2.023-1.848,3.094
			c-0.364,1.04-1.272,4.016-1.485,5.144c-0.182,1.04-0.849,3.438-0.394,3.698C119.114,68.837,119.629,68.117,119.931,67.595z
			 M121.962,70.919c-0.122-0.289-0.424-0.578-0.728-0.377c-0.333,0.232-0.364,0.811-0.03,1.156c0.424,0.492,1.03,0.752,1.121,0.693
			C122.447,72.277,122.174,71.382,121.962,70.919z"/>
		<path fill="#48423B" d="M141.173,73.404c-0.152,2.977,0.424,5.607,1.606,6.705c0.818,0.752,1.182,0.867,1.576,0.955
			c0.515,0.115,0.424,0.577-0.03,0.605c-0.636,0.029-1.364-0.115-3-1.098c-1.182-0.723-2.909-2.89-2.909-7.313
			c0-0.924,0.061-1.877,0.182-2.831c-0.818,0.491-1.636,0.838-2.394,0.954c-4.212,0.635-5.121-1.734-4.424-5.666
			c0.122-1.184,0.667-4.422,1.061-6.039c0.333-1.416,0.394-3.643-0.667-3.643c-1.304,0-4.333,1.533-4.637,1.735
			c-0.303,0.202-1.212,0.376-0.424-0.202c0.515-0.377,2.818-1.59,4.061-1.908s3.879-0.982,4.273,1.647
			c0.151,1.011-0.364,5.867-0.606,7.081c-0.455,2.543-2,6.965,1.455,6.502c0.697-0.086,1.515-0.52,2.394-1.156
			c0.667-4.71,2.424-9.133,3.333-11.01c1.788-3.699,4.97-4.684,4.546-0.232c-0.273,2.832-2.304,6.532-4.819,9.249
			C141.476,69.533,141.264,71.468,141.173,73.404z M141.961,66.527c2.122-2.602,3.909-5.781,4.152-7.891
			c0.333-2.717-0.789-2.717-2.213,0.404C143.325,60.341,142.536,63.117,141.961,66.527z"/>
		<path fill="#48423B" d="M153.748,77.103c-0.242-1.127,0.455-2.6,0.455-5.027c0-0.088,0-0.202-0.092-0.232
			c-0.061-0.027-0.182,0-0.273,0.115c-0.514,0.607-1.03,1.648-1.424,2.283c-0.363,0.666-0.545,0.984-0.848,1.591
			c-0.516,0.981-0.971,1.647-1.547,2.138c-0.514,0.492-1.271,0.693-1.545,0.752c-1.303,0.26-2.061-0.434-2.061-1.011
			c-0.031-2.169,0.605-4.538,0.969-6.302c0.152-0.779,0.607-2.688,0.939-3.496c0.063-0.173,0.213-0.463,0.637-0.549
			c0.426-0.088,0.697-0.115,0.939,0.26c0.152,0.375,0.242,1.127,0.213,1.445c-0.121,1.705-0.637,4.075-0.91,5.316
			c-0.182,0.926-0.363,2.545-0.15,2.891c0.15,0.145,0.242,0.145,0.395,0.059c0.574-0.289,0.908-0.811,1.514-1.85
			c0.486-0.867,1.455-2.572,2.182-3.814c0.273-0.463,0.91-2.023,1.637-3.006c0.182-0.262,0.426-0.607,0.576-0.867
			c0.152-0.26,0.818-0.318,1-0.145c0.213,0.174,0.395,0.463,0.395,0.75c-0.121,3.209-0.213,4.162-0.576,6.301
			c-0.273,1.705-0.364,2.398,0.273,2.746c1.484,0.809,3.879-3.844,4.484-5.896c0.061-0.26,0.182-0.461,0.363-0.635
			c0.061-0.029,0.092-0.029,0.182,0c0.121,0,0.213,0.115,0.213,0.23c-0.031,0.318-0.182,0.607-0.273,0.867
			c-0.09,0.231-1.272,3.382-2.272,4.826c-1.304,1.908-3,2.342-4.364,1.793C154.08,78.318,153.837,77.595,153.748,77.103z"/>
		<path fill="#48423B" d="M162.656,78.375c-0.607-0.346-1.152-1.098-1.426-2.021c-0.424-1.445-0.393-3.295,0.334-4.74
			c0.697-1.359,1.666-3.121,3.697-4.191c0.516-0.26,0.878-0.404,1.484-0.346c0.789,0.057,1.576,0.752,1.516,1.531
			c-0.031,0.348-0.092,0.578-0.273,0.781c-0.182,0.173-0.271,0.173-0.363,0.145c-0.182-0.088-0.182-0.145-0.121-0.463
			c0.092-0.318,0.213-0.723,0-0.867c-0.334-0.23-0.758-0.174-1.303,0.086c-1.334,0.693-2.242,3.383-2.484,5.377
			c-0.213,1.733-0.061,2.947,0.697,3.583c0.816,0.692,2.029,0.81,3.393-0.202c1.395-1.012,3.092-4.076,3.242-4.711
			c0.184-0.377,0.425-0.781,0.668-0.549c0.15,0.115,0.029,0.434-0.031,0.75c-0.271,0.867-1.848,4.221-3.332,5.115
			c-0.758,0.666-1.244,1.244-2.91,1.359C164.382,79.097,163.443,78.837,162.656,78.375z"/>
		<path fill="#48423B" d="M171.562,78.722c-0.211-0.145-0.332-0.375-0.363-0.606c-0.271-2.283,0.121-3.382,0.334-5.261
			c0.029-0.26,0.576-4.104,0.758-4.652c0.15-0.491,0.576-0.896,1.029-1.127c0.121-0.059,0.485,0.029,0.607,0.115
			c0.424,0.289,0.271,2.399,0.271,2.947c0,0.377,0.061,0.724,0.092,1.1c0.15,0.404,0.303,0.434,0.939-0.289
			c0.908-1.271,1.637-2.082,2.334-2.631c0.756-0.606,1.605-0.809,2-0.635c1.121,0.404,1.271,1.271,1.061,2.426
			c-0.061,0.29-0.273,1.012-0.121,1.301c0.15,0.262,0.574-0.144,0.756-0.316c0.305-0.318,0.546-0.723,0.818-1.069
			c0.486-0.665,1.486-1.62,2.213-1.966c0.818-0.375,1.879,0,2.213,1.156c0.211,0.895-0.303,4.074-0.303,4.826
			c-0.063,0.867-0.063,1.705-0.092,2.543c0,1.156,0.576,1.532,1.334,0.665c0.362-0.435,1.242-1.966,1.879-3.267
			c0.242-0.49,0.939-2.166,1.211-2.658c0.092-0.145,0.272-0.145,0.395,0c0.061,0.029,0.061,0.086,0.061,0.145
			c0,0.115,0.061,0.174,0,0.289c-0.183,0.434-1.242,2.804-1.424,3.18c-0.91,1.936-1.85,3.641-3,3.756
			c-0.213,0.029-0.426,0.059-0.729,0.059c-1.03,0-2.03-0.781-2.211-1.445c-0.213-0.809-0.031-2.225,0.181-3.498
			c0.151-0.895,0.364-2.369,0.606-3.033c0.242-0.723,0.424-1.59,0.152-1.734c-0.759-0.375-2.637,2.313-3.334,3.18
			c-0.213,0.26-0.455,0.809-0.605,1.127c-0.486,1.127-0.607,2.773-0.819,4.104c-0.03,0.318-0.241,0.665-0.423,0.896
			c-0.184,0.346-1.092,0.346-1.365,0.289c-0.453-0.116-0.637-0.55-0.637-0.811c-0.121-2.051,0.607-5.23,0.971-7.484
			c0.061-0.375,0.182-0.723,0.242-1.07c0.121-0.23-0.09-0.434-0.605-0.201c-1.031,0.463-2.91,3.295-3.152,3.67
			c-0.271,0.434-0.545,0.81-0.637,1.301l-0.879,3.9c-0.09,0.289-0.303,0.521-0.515,0.752c-0.151,0.115-0.334,0.203-0.515,0.232
			C172.017,78.954,171.775,78.867,171.562,78.722z"/>
		<path fill="#48423B" d="M190.744,77.132c-0.334-1.012-0.303-2.861-0.152-3.814c0.363-1.619,0.818-3.352,2.486-4.971
			c0.574-0.578,1.393-0.953,2.211-1.04c0.242-0.03,0.728-0.03,0.91,0.028c0.453,0.145,0.666,0.318,0.908,0.693
			c0.152,0.203,0.273,0.404,0.516,0.521c0.152,0.087,0.273,0.261,0.363,0.405c0.273,0.434,0.363,0.895,0.363,1.416
			c0,0.723-0.182,1.473-0.121,1.531c0.91-0.086,1.576-0.52,2.334-1.127c0.303-0.232,0.424-0.404,0.576-0.521
			c0.121-0.115,0.303-0.115,0.393,0c0.123,0.029,0.061,0.117,0.061,0.204c0.031,0.085-0.061,0.202-0.09,0.259
			c-1.303,1.387-2.666,1.966-3.545,2.139c-0.334,0.174-0.879,1.676-1.092,2.082c-0.879,1.676-1.576,3.236-2.697,3.727
			C192.804,79.3,191.199,78.492,190.744,77.132z M195.259,76.554c0.545-0.896,1.061-1.82,1.605-3.15
			c0.092-0.201,0.182-0.635-0.061-0.722c-0.879-0.317-1.424-1.155-1.484-1.878c-0.092-0.752,0.061-1.793,1.061-2.283
			c0,0-0.182-0.637-0.607-0.578c-1.242,0.174-2.211,1.357-2.727,3.785c-0.303,1.475-0.334,3.613-0.273,4.393
			c0.031,0.404,0.395,1.82,1,1.734C194.349,77.769,194.957,77.076,195.259,76.554z M197.682,70.458c0-0.349-0.03-0.55-0.091-0.81
			c-0.061-0.377-0.393-0.637-0.695-0.578c-0.365,0.057-0.547,0.375-0.576,0.521c-0.152,0.867-0.031,1.155,0.332,1.676
			c0.121,0.173,0.516,0.491,0.758,0.462C197.591,71.699,197.682,70.63,197.682,70.458z"/>
		<path fill="#48423B" d="M201.439,78.433c-0.273-0.288-1.303-2.139-1.121-4.451c0.03-0.895,0.605-5.664,2-9.826
			c0.637-1.936,1.939-5.404,3.666-7.051c0.879-1.07,2.426-1.793,3.184-1.33c2.181,1.215-1.576,9.683-4.879,13.93
			c0,0-0.818,0.781-1.031,1.938c-0.121,0.665-0.243,1.301-0.303,1.965c-0.092,1.33-0.121,2.313,0.213,3.814
			c0.029,0.375,0.393,0.953,0.756,1.012c0.697,0.116,1.395-0.578,1.729-1.156c0.758-1.301,0.939-2.109,1.242-3.959
			c0-0.086-0.121-0.115-0.484-0.26c-0.365-0.145-0.697-0.318-1-0.492c-0.455-0.289-0.758-0.867-0.758-1.387
			c0-0.664,0.15-1.098,0.666-1.445c0.363-0.26,0.971-0.23,1.363-0.057c0.85,0.375,0.879,1.387,1.031,2.166l0.09,0.521
			c0,0,0.426,0,0.607,0c0.271-0.029,0.514-0.116,0.787-0.203c0.758-0.23,1.151-0.693,1.545-1.127
			c0.305-0.348,0.426-0.492,0.576-0.606c0.121-0.116,0.303-0.116,0.395,0c0.121,0.029,0.121,0.144,0.121,0.231
			c0.029,0.086-0.061,0.202-0.092,0.26c-0.879,1.039-1.848,1.936-2.939,2.109c-0.211,0.059-0.393,0.059-0.545,0.087
			c-0.273,0.029-0.395,0.173-0.395,0.173c-0.484,2.082-1.121,3.555-1.393,4.076c-0.668,1.271-1,1.705-2.122,2.08
			C203.47,79.734,202.257,79.33,201.439,78.433z M204.833,67.595c1.181-1.994,1.818-2.832,2.697-4.941
			c0.424-0.982,1.939-5.288,1.545-5.896c-0.363-0.578-1.213-0.259-1.576,0c-0.727,0.55-1.424,2.023-1.848,3.094
			c-0.363,1.04-1.273,4.016-1.484,5.144c-0.184,1.04-0.85,3.438-0.395,3.698C204.014,68.837,204.531,68.117,204.833,67.595z
			 M206.863,70.919c-0.121-0.289-0.424-0.578-0.727-0.377c-0.334,0.232-0.363,0.811-0.029,1.156
			c0.424,0.492,1.029,0.752,1.121,0.693C207.348,72.277,207.076,71.382,206.863,70.919z"/>
		<path fill="#48423B" d="M227.923,72.307c-0.121,0.317-0.242,0.519-0.393,0.896c-0.91,2.226-2.426,5.289-4.637,5.664
			c-2.182,0.375-3.242-0.809-2.758-3.324c0.121-0.577,0.303-1.646,0.455-2.311c-0.426,0.404-0.789,0.635-1.061,0.779
			c-0.547,0.289-1.184,0.434-1.184,0.434c-0.271,0.954-0.514,1.821-0.787,2.342c-0.666,1.271-1,1.705-2.121,2.08
			c-0.879,0.289-2.092-0.115-2.91-1.012c-0.271-0.289-1.303-2.168-1.121-4.451c0.182-2.369,0.729-4.768,1.213-5.809
			c0.061-0.145,0.242-0.52,0.394-0.578c0.728-0.318,1.546,0.521,1.454,1.271c-0.15,1.186-0.393,2.053-0.635,3.324
			c-0.121,0.664-0.244,1.301-0.305,1.966c-0.09,1.329-0.453,2.312,0.213,3.67c0.272,0.548,0.91,0.548,1.272,0.606
			c0.698,0.115,1.394-0.578,1.728-1.156c0.576-1.012,0.637-1.561,0.637-2.225c0-0.088-0.121-0.115-0.484-0.26
			c-0.365-0.145-0.697-0.318-1-0.492c-0.455-0.289-0.758-0.867-0.758-1.387c0-0.664,0.15-1.098,0.666-1.445
			c0.363-0.26,0.971-0.23,1.363-0.058c0.849,0.376,0.879,1.388,1.031,2.167c0.029,0.146,0.09,0.637,0.09,0.637
			c0.182,0.115,0.728,0.029,1.273-0.26c0.818-0.434,1-0.781,1.334-1.389c0.332-1.502,0.666-3.15,0.879-3.988
			c0.061-0.145,0.241-0.52,0.393-0.578c0.729-0.316,1.455,0.059,1.455,0.811c0,1.184-0.395,3.092-0.637,4.363
			c-0.303,1.561-0.697,3.729-0.727,4.162c-0.061,0.867,0.576,1.068,0.879,1.068c0.576,0,1.121-0.434,1.878-1.328
			c0.517-0.607,1.788-2.861,2.396-4.365c0.121-0.289,0.303-0.289,0.393-0.259C227.984,71.931,227.984,72.132,227.923,72.307z
			 M217.347,72.076c-0.121-0.289-0.424-0.578-0.727-0.377c-0.334,0.232-0.363,0.811-0.029,1.156
			c0.423,0.492,1.029,0.752,1.121,0.694C217.833,73.433,217.56,72.537,217.347,72.076z"/>
		<path fill="#48423B" d="M232.316,75.312c-0.092-0.317-0.395-0.607-0.818-0.203c-0.637,0.607-1.424,1.705-1.971,3.121
			c-0.121,0.29-0.545,0.319-0.756,0.029c-0.123-0.114-0.214-0.375-0.152-0.49c0.576-1.244,1.242-2.082,2.031-2.832
			c0.393-0.348,0.635-0.781,0.848-1.215c0.152-0.404,0.213-1.186,0.182-1.445c-0.152-0.75-0.273-2.977-0.818-3.698
			c-0.121-0.146-0.334-0.058-0.455,0.058c-0.303,0.26-1.303,3.18-1.545,3.496c-0.029,0.088-0.273,0.289-0.424,0.145
			c-0.303-0.086,0.09-0.779,0.545-2.139c0.455-1.357,0.85-2.369,1.729-2.629c0.574-0.174,1.09,0.174,1.424,0.404
			c0.332,0.289,0.576,0.607,0.727,1.041c0.273,0.838,0.516,2.021,0.545,2.109c0.184,0.434,0.244,0.434,0.485,0
			c0.759-1.186,1.698-2.977,2.304-3.555c0.121-0.115,0.242-0.232,0.395-0.145c0.09,0.057,0.182,0.26,0.029,0.607
			c-0.182,0.432-0.605,1.357-0.848,1.705l-0.576,0.953c-0.424,0.607-0.789,1.243-1.152,1.879c-0.182,0.346-0.151,0.693-0.121,1.069
			c0.121,0.78,0.182,3.438,1.484,4.133c2.031,1.069,4.395-0.06,7.031-1.821c2.121-1.416,4.85-4.596,6.637-5.028
			c1.363-0.347,2.484-0.376,3.303,0.433c0.697,0.664,0.818,2.371,0,2.371c-0.666,0.115-1.15-0.983-1.395-1.619
			c-0.182-0.492-0.787-0.723-1.727-0.375c-1.424,0.461-3.727,3.496-8.605,6.474c-1.213,0.751-4.455,1.474-6.455,0.229
			C233.074,77.74,232.589,76.266,232.316,75.312z"/>
	</g>
</g>
</svg>
