<?xml version="1.0" encoding="utf-8"?>
<!-- Generator: Adobe Illustrator 16.0.0, SVG Export Plug-In . SVG Version: 6.00 Build 0)  -->
<!DOCTYPE svg PUBLIC "-//W3C//DTD SVG 1.1//EN" "http://www.w3.org/Graphics/SVG/1.1/DTD/svg11.dtd">
<svg version="1.1" id="Слой_1" xmlns="http://www.w3.org/2000/svg" xmlns:xlink="http://www.w3.org/1999/xlink" x="0px" y="0px"
	 width="331px" height="100px" viewBox="0 0 331 100" enable-background="new 0 0 331 100" xml:space="preserve">
<g>
	<g>
		<g>
			<path fill="#FFFFFF" d="M47.5,49.267c-0.625,0.357-1.311,1.829-5.174,1.613c-3.635-0.203-13.097-17.849-16.114-18.812
				c-0.562-0.178-4.003,2.461-5.344,4.402c-2.572,3.722-2.074,10.408-1.927,11.763c0.191,1.771-0.718,2.335-1.949,2.778
				c-1.231,0.443-2.138-0.139-2.343-1.229c-0.488-2.594,0.976-11.109,3.623-14.512c1.456-1.871,4.405-3.409,7.205-4.792
				c-0.322-0.801-0.483-1.204-0.806-2.005c-2.515-6.212-4.208-10.851-5.357-14.024c-0.912-2.52-1.671-6.515-3.716-6.153
				c-3.855,0.682-7.909,4.177-8.421,4.65s-2.224,0.892-0.902-0.31c0.835-0.76,5.43-3.861,7.724-4.861s6.017-1.666,7.984,2.363
				c2.055,4.208,7.241,17.823,7.894,18.007c0.148,0.042,1.153-0.826,1.556-1.212c2.782-2.667,2.7-6.304,2.477-8.887
				C33.686,15.464,33.12,7.31,33.01,6.062c-0.06-0.68,0.645-1.276,1.485-1.67C36.176,3.604,37.086,4.487,37.31,6
				c0.225,1.514,0.17,2.801,0.577,10.266c0.407,7.463-3.341,10.03-6.397,12.475c-0.343,0.275-0.993,0.651-1.036,0.807
				c-0.906,3.27,8.126,19.334,12.022,19.709c4.126,0.397,3.714-0.07,4.262-0.575C47.287,48.177,48.125,48.912,47.5,49.267z"/>
			<path fill="#FFFFFF" d="M62.173,40.571c-0.656-1.968,0.271-4.82-0.258-9.222c-0.019-0.158-0.059-0.358-0.221-0.399
				C61.58,30.922,61.356,31,61.21,31.222c-0.791,1.209-1.603,3.238-2.141,4.463c-0.544,1.24-0.782,1.925-1.209,3.081
				c-0.7,1.889-1.462,3.215-2.35,4.24c-0.834,0.963-2.172,1.568-2.656,1.736c-2.308,0.802-3.881-0.274-4.034-1.312
				c-0.573-3.889-0.006-8.381,0.213-11.647c0.097-1.442,0.523-5.049,0.899-6.567c0.079-0.318,0.286-0.89,1.065-1.153
				c0.778-0.265,1.396-0.371,1.832,0.234c0.394,0.546,0.716,1.991,0.741,2.566c0.134,3.08-0.248,7.559-0.427,9.852
				c-0.132,1.698-0.058,4.828,0.416,5.271c0.246,0.229,0.482,0.189,0.739,0.007c0.946-0.671,1.508-1.696,2.36-3.713
				c0.704-1.666,2.102-5.007,3.186-7.421c0.404-0.9,1.296-3.89,2.409-5.823c0.289-0.501,0.669-1.193,0.899-1.699
				c0.23-0.505,1.482-0.731,1.856-0.48c0.41,0.274,0.85,0.765,0.898,1.279c0.538,5.723,0.439,7.613,0.233,11.552
				c-0.165,3.135-0.169,4.431,1.076,4.926c2.904,1.154,6.547-7.861,7.164-11.612c0.077-0.467,0.258-0.975,0.562-1.226
				c0.082-0.067,0.188-0.042,0.341-0.035c0.193,0.01,0.431,0.179,0.441,0.38c0.029,0.554-0.223,1.151-0.352,1.629
				c-0.116,0.43-1.751,6.389-3.302,9.208c-2.039,3.705-5.121,4.903-7.669,4.163C63.073,42.733,62.457,41.426,62.173,40.571z"/>
			<path fill="#FFFFFF" d="M113.011,27.337c-0.186,0.584-0.278,1.18-0.526,1.877c-1.474,4.142-4.21,9.736-8.236,10.687
				c-3.972,0.938-6.081-1.07-5.511-5.712c0.144-1.172,0.431-3.521,0.633-4.699c0.209-1.242,0.314-1.865,0.526-3.107
				c-1.06,2.876-2.25,6.083-3.051,7.466c-2.914,5.022-4.239,5.853-8.053,5.243c-2.841-0.455-1.76-15.262-1.76-15.262
				c-0.009-0.002-0.908,2.687-1.331,4.458c-3.015,12.61-5.026,13.758-8.323,13.408c-3.352-0.357-3.81-3.702-3.178-5.616
				c0.305-0.924,2.147-1.176,1.963,0.326c-0.25,2.037-0.278,3.854,1.55,4.141c1.254,0.196,2.156-0.33,3.117-2.162
				c1.736-3.311,2.82-8.33,3.41-10.44c1.008-3.605,1.929-6.38,2.75-8.667c0.661-1.838,3.873-2.172,3.969-0.963
				c0.214,2.684-0.5,7.993-0.451,10.788c0.076,4.273,0.41,7.642,1.339,8.099c2.812,1.383,7.999-13.046,8.897-16.854
				c0.089-0.377,0.293-0.715,0.454-0.982c0.11-0.184,0.209-0.334,0.319-0.392c1.3-0.683,2.763-0.072,2.848,1.297
				c0.135,2.16-0.375,5.845-0.683,8.188c-0.379,2.876-0.857,6.878-0.861,7.672c-0.008,1.587,1.19,1.88,1.75,1.845
				c1.063-0.068,2.246-0.94,3.554-2.653c0.888-1.162,2.903-5.422,3.906-8.197c0.194-0.537,0.539-0.558,0.712-0.514
				C113.092,26.698,113.111,27.021,113.011,27.337z"/>
			<path fill="#FFFFFF" d="M133.831,25.5c-0.014,0.554-0.31,1.126-0.475,1.592c-0.148,0.421-2.695,6.147-4.127,8.247
				c-1.564,2.294-3.131,3.79-5.981,3.797c-1.509,0.004-4.005-0.682-4.711-2.709c-0.904-2.599,0.702-5.793,1.448-8.309
				c0.379-1.263,0.567-1.893,0.949-3.154c0.252-0.802-0.171-1.311-0.797-1.34c-1.653-0.081-3.78-0.957-3.928-0.881
				c-0.262,0.132-1.09,3.828-2.402,6.828c-0.233,0.532-0.671,0.785-0.93,0.681c-0.279-0.111-0.259-0.527-0.105-0.945
				c1.156-3.14,2.564-6.755,2.436-7.153c-0.121-0.375-1.637-1.402-2.173-2.164c-1.438-2.043-0.622-5.672,1.688-6.69
				c1.98-0.874,4.057-0.043,3.649,2.581c-0.146,0.938-0.476,2.453-0.789,3.045c-0.479,0.91-0.278,1.455,0.079,1.741
				c1.313,1.055,2.764,1.618,5.907,1.501c0.857-0.032,1.326,0.436,1.466,1.002c0.435,1.763-1.228,7.275-1.784,8.676
				c-0.899,2.263-1.218,4.635,0.529,5.05c3.219,0.763,5.61-3.711,8.647-10.625c0.21-0.479,0.333-0.951,0.654-1.178
				c0.087-0.062,0.19-0.027,0.341-0.008C133.613,25.109,133.836,25.298,133.831,25.5z M117.225,16.089
				c0.095-0.678,0.019-2.114-0.732-2.08c-1.271,0.059-1.664,1.504-1.613,2.559c0.031,0.633,0.617,2.505,1.161,2.588
				C116.497,19.225,117.028,17.506,117.225,16.089z"/>
			<path fill="#FFFFFF" d="M146.081,35.179c-0.428-2.031,0.811-4.758,0.783-9.191c-0.001-0.158-0.019-0.36-0.174-0.419
				c-0.109-0.041-0.34,0.011-0.509,0.216c-0.92,1.112-1.957,3.037-2.628,4.194c-0.68,1.169-0.992,1.82-1.546,2.919
				c-0.908,1.799-1.812,3.031-2.807,3.948c-0.936,0.863-2.331,1.316-2.83,1.428c-2.378,0.535-3.816-0.714-3.851-1.762
				c-0.129-3.929,0.94-8.329,1.525-11.548c0.258-1.421,1.088-4.959,1.63-6.423c0.113-0.307,0.383-0.852,1.185-1.025
				c0.802-0.175,1.428-0.211,1.792,0.44c0.328,0.587,0.486,2.058,0.446,2.632c-0.212,3.079-1.099,7.483-1.534,9.742
				c-0.323,1.672-0.601,4.791-0.18,5.284c0.217,0.255,0.456,0.241,0.729,0.09c1.014-0.561,1.684-1.515,2.757-3.423
				c0.886-1.575,2.651-4.74,3.997-7.015c0.502-0.849,1.724-3.717,3.047-5.511c0.343-0.466,0.796-1.113,1.082-1.588
				c0.285-0.476,1.552-0.559,1.895-0.268c0.376,0.318,0.759,0.854,0.748,1.37c-0.111,5.748-0.422,7.619-1.072,11.509
				c-0.516,3.097-0.666,4.381,0.514,5.014c2.75,1.476,7.383-7.07,8.416-10.727c0.129-0.455,0.366-0.938,0.695-1.154
				c0.088-0.058,0.192-0.021,0.343,0.004c0.19,0.032,0.404,0.227,0.392,0.428c-0.033,0.554-0.346,1.116-0.527,1.576
				c-0.164,0.416-2.463,6.153-4.318,8.778c-2.44,3.451-5.633,4.293-8.076,3.27C146.731,37.432,146.266,36.06,146.081,35.179z"/>
			<path fill="#FFFFFF" d="M162.557,37.56c-1.1-0.652-2.104-2.034-2.59-3.728c-0.76-2.646-0.681-6.043,0.721-8.649
				c1.324-2.46,3.23-5.712,7.107-7.537c0.977-0.458,1.695-0.689,2.832-0.568c1.477,0.156,2.961,1.458,2.799,2.871
				c-0.072,0.628-0.205,1.08-0.559,1.413c-0.326,0.307-0.537,0.309-0.693,0.245c-0.326-0.135-0.357-0.306-0.207-0.851
				c0.152-0.557,0.436-1.309,0.043-1.584c-0.619-0.434-1.453-0.364-2.471,0.096c-2.531,1.143-4.357,6.09-4.875,9.722
				c-0.449,3.158-0.195,5.38,1.18,6.569c1.492,1.289,3.721,1.531,6.295-0.224c2.611-1.779,5.914-7.424,6.314-8.408
				c0.258-0.632,0.852-1.35,1.289-0.958c0.248,0.224,0.051,0.839-0.107,1.372c-0.447,1.499-4.104,7.493-6.518,9.13
				c-1.398,0.949-2.375,2.181-5.435,2.344C165.737,38.917,163.997,38.413,162.557,37.56z"/>
			<path fill="#FFFFFF" d="M178.989,38.617c-0.381-0.278-0.595-0.709-0.633-1.131c-0.377-4.157,0.443-6.175,0.973-9.581
				c0.072-0.471,1.381-7.455,1.748-8.438c0.328-0.873,1.158-1.608,2.033-1.979c0.23-0.098,0.92,0.096,1.143,0.26
				c0.767,0.564,0.326,4.398,0.283,5.4c-0.031,0.686-0.027,1.433,0.08,2.014c0.123,0.668,0.66,0.81,1.791-0.449
				c1.83-2.037,3.275-3.647,4.635-4.582c1.488-1.023,3.135-1.278,3.85-0.954c1.982,0.896,2.289,2.493,1.744,4.543
				c-0.137,0.515-0.629,1.831-0.369,2.356c0.24,0.486,1.115-0.195,1.459-0.491c0.604-0.518,1.125-1.257,1.658-1.854
				c0.99-1.115,2.998-2.783,4.41-3.306c1.58-0.585,3.619,0.294,4.027,2.404c0.313,1.613-1.074,7.434-1.217,8.749
				c-0.168,1.522-0.371,3.121-0.51,4.618c-0.189,2.064,0.885,2.869,2.377,1.397c0.732-0.723,2.576-3.406,3.955-5.669
				c0.521-0.857,2.074-3.841,2.668-4.652c0.182-0.246,0.535-0.12,0.738,0.064c0.074,0.066,0.1,0.167,0.09,0.272
				c-0.018,0.21,0.072,0.326-0.045,0.524c-0.42,0.708-2.754,4.908-3.141,5.563c-1.988,3.354-3.984,6.32-6.084,6.408
				c-0.389,0.017-0.793,0.047-1.352,0.007c-1.896-0.138-3.65-1.69-3.898-2.918c-0.299-1.492,0.211-4.063,0.766-6.351
				c0.391-1.611,0.996-4.281,1.514-5.452c0.555-1.261,1-2.851,0.506-3.139c-1.354-0.791-5.242,3.893-6.645,5.384
				c-0.422,0.45-0.959,1.428-1.26,1.985c-1.045,1.941-1.521,5.057-1.961,7.395c-0.104,0.554-0.584,1.192-0.875,1.586
				c-0.387,0.523-2.059,0.53-2.543,0.392c-0.816-0.233-1.109-1.078-1.1-1.538c0.078-3.641,1.623-9.482,2.529-13.556
				c0.15-0.679,0.355-1.425,0.563-1.925c0.154-0.374-0.131-0.801-1.127-0.431c-1.988,0.74-5.773,5.742-6.252,6.405
				c-0.547,0.761-1.086,1.431-1.295,2.32c-0.779,2.819-1.164,4.229-1.932,7.051c-0.19,0.519-0.605,0.998-1.008,1.333
				c-0.246,0.204-0.637,0.355-0.967,0.385C179.827,39.083,179.37,38.896,178.989,38.617z"/>
			<path fill="#FFFFFF" d="M241.002,29.593c-0.092,0.547-0.465,1.074-0.693,1.512c-0.208,0.396-3.107,5.854-5.236,8.267
				c-2.797,3.171-7.338,3.665-9.746,2.466c-3.055-1.52-1.443-8.169-1.305-10.364c0.086-1.36-0.117-2.133-0.191-2.138
				c-0.59-0.039-2.814,2.597-3.527,3.537c-0.465,0.594-0.697,0.891-1.16,1.485c-0.359,2.088-0.779,5.509-1.342,6.131
				c-1.816,2.003-4.271,0.636-4.082-1.626c0.33-3.944,1.844-8.175,2.779-11.313c0.412-1.384,1.672-5.334,2.373-6.731
				c0.146-0.292,0.477-0.807,1.293-0.891c0.818-0.085,1.443-0.051,1.734,0.635c0.264,0.618,0.26,2.095,0.154,2.666
				c-0.369,1.965-1.668,6.894-1.668,6.894c0.021,0.016,0.723-0.41,1.268-0.731c0.543-0.32,5.395-4.853,8.771-6.769
				c1.345-0.764,3.607-1.717,4.822-0.706c0.521,0.433,0.018,1.437-0.777,0.765c-0.795-0.671-2.041,0.606-3.369,1.231
				c-0.65,0.307-4.965,3.525-4.965,3.525c0.02,0.085,2.143,1.445,2.297,2.778c0.207,1.763-1.451,10.305,0.703,10.741
				c4.361,0.884,8.947-7.27,10.365-10.796c0.176-0.44,0.465-0.896,0.814-1.074c0.096-0.048,0.195,0,0.342,0.041
				C240.844,29.179,241.038,29.394,241.002,29.593z"/>
			<path fill="#FFFFFF" d="M253.692,45.283c-0.689-0.58-1.259-1.936-1.447-2.65c-0.406-1.544-0.256-3.127-0.172-3.754
				c0.121-0.89,0.271-1.799,0.36-2.666c0.026-0.254-0.112-0.443-0.282-0.466c-0.451-0.06-0.797,0.373-0.863,0.469
				c-2.182,3.15-4.559,7.801-8.195,7.987c-1.818,0.093-3.766-1.249-4.297-2.755c-1.321-3.746,0.598-10.41,5.238-14.995
				c2.238-2.213,6.166-3.782,9.146-3.031c1.1,0.277,1.686,1.296,1.535,2.394c-0.135,0.994-0.332,1.742-1.018,2.366
				c-0.301,0.274-0.554,0.243-0.781,0.212c-1.42-0.191,1.043-3.16-0.039-3.571c-1.641-0.624-3.713-0.173-5.694,1.861
				c-3.528,3.625-4.802,9.966-4.468,13.75c0.098,1.115,1.459,1.459,2.25,1.027c2.375-1.296,3.967-4.13,6.406-7.151
				c0.848-1.049,1.721-2.217,2.508-3.229c0.258-0.334,0.607-0.757,0.789-1.116c0.633-1.244,0.529-2.375,1.457-2.994
				c0.51-0.339,1.289-0.287,1.537,0.214c0.191,0.385,0.32,0.863,0.275,1.317c-0.203,2.022-0.402,4.234-0.721,6.293
				c-0.352,2.268-0.658,4.403-0.818,6.975c-0.049,0.786-0.373,3.033,2.293,3.423c2.055,0.3,7.266-0.004,12.207-1.269
				c3.209-0.821,4.756-1.42,8.311-2.673c3.06-1.079,4.217-1.632,6.412-1.651c2.596-0.022,4.568,0.981,5.492,2.845
				c0.205,0.415,0.355,0.832,0.453,1.265c0.172,0.775-0.01,1.6-0.584,2.149c-0.324,0.311-0.9,0.459-1.273,0.347
				c-0.633-0.189-0.973-0.621-1.049-1.161c-0.117-0.819,0.246-1.579,0.26-2.316c0.02-0.953-1.635-2.13-3.396-1.964
				c-4.053,0.382-4.564,0.941-8.783,2.473c-0.516,0.191-0.773,0.285-1.287,0.478c-3.678,1.093-4.527,1.382-8.814,2.255
				c-2.818,0.574-5.413,0.816-8.01,0.816C257.557,46.788,255,46.383,253.692,45.283z"/>
		</g>
	</g>
	<path fill="#FFFFFF" d="M287.454,96.57c-2.055,0-3.965-0.629-5.547-1.701c-0.041,0.004-0.078,0.006-0.117,0.006h-21.25
		c-3.049,0-5.617-2.264-5.971-5.266c-0.025-0.212-0.049-0.426-0.07-0.646c-1.678-0.351-5.541-1.445-7.436-4.301
		c-1.109-1.678-1.365-3.653-0.758-5.875c0.592-2.155,1.789-3.659,3.561-4.469c2.326-1.061,5.151-0.651,7.184-0.086l0.131-0.619
		c0.061-0.291,0.244-0.543,0.502-0.691c0.258-0.149,0.566-0.182,0.85-0.089l2.121,0.697c3.615-2.879,7.387-4.261,9.877-4.91
		l-0.031-1.299c-0.024-0.994,0.346-1.935,1.043-2.647c0.695-0.71,1.627-1.103,2.621-1.103h0.002l3.039,0.001
		c0.559,0,1.02,0.439,1.045,0.998l0.166,3.445h13.445c1.664,0,3.084,1.068,3.607,2.556c1.283-0.822,3.347-2.193,5.671-3.913
		L288.616,39.85l-0.295,0.141c-0.25,0.119-0.539,0.134-0.799,0.043c-0.264-0.093-0.479-0.286-0.598-0.536l-3.365-7.056
		c-0.25-0.522-0.029-1.147,0.494-1.396l0.422-0.202c-1.262-3.065-1.131-5.479,0.376-10.203c0.688-2.153,2.263-4.086,4.687-5.746
		c3.203-2.191,7.125-3.007,10.759-2.238c3.295,0.698,8.152,2.79,12.576,8.789c8.984,12.181,6.955,24.04,3.67,31.841
		c-2.115,5.023-7.803,10.209-12.781,14.036l5.752,12.308c0.303-0.023,0.611-0.036,0.926-0.036c3.949,0,7.145,1.897,7.83,4.478h6.291
		c0.58,0,1.047,0.47,1.047,1.048v7.561c0,0.576-0.467,1.045-1.047,1.045h-28.244c-0.557,0-1.012-0.432-1.045-0.98
		C293.458,95.07,290.627,96.57,287.454,96.57z M284.954,79.253c-3.088,1.045-5.314,3.97-5.314,7.407c0,4.31,3.504,7.815,7.814,7.815
		s7.818-3.506,7.818-7.815c0-4.31-3.508-7.816-7.818-7.816c-0.842,0-1.654,0.134-2.416,0.381
		C285.01,79.236,284.981,79.245,284.954,79.253z M263.059,92.781h16.605c-1.328-1.687-2.121-3.813-2.121-6.12
		c0-3.166,1.492-5.989,3.806-7.804c-3.876-0.362-10.433-0.426-14.103,2.592C262.995,84.948,262.915,90.617,263.059,92.781z
		 M257.995,79.691c-1.627,3.175-1.68,6.847-1.346,9.671c0.23,1.949,1.902,3.418,3.891,3.418h0.414
		c-0.168-2.628,0.02-8.881,4.963-12.948c5.748-4.728,16.762-3.008,18.683-2.665c0.903-0.272,1.862-0.418,2.854-0.418
		c2.313,0,4.445,0.797,6.135,2.133v-6.538c0-0.011,0-0.021,0-0.031v-0.477c0-0.953-0.775-1.729-1.729-1.729h-16.801
		c-1.09,0-2.15,0.112-3.156,0.335c-2.596,0.573-7.586,2.169-11.859,6.433c-0.012,0.011-0.023,0.023-0.033,0.033
		c-0.826,0.828-1.471,1.74-1.973,2.699C258.024,79.637,258.01,79.666,257.995,79.691z M297.364,91.63h26.152v-5.465h-5.461
		c-0.66,1.261-2.557,3.543-7.615,3.543c-5.332,0-7.102-2.227-7.684-3.543h-5.392V91.63L297.364,91.63z M304.568,85.037
		c0.088,0.379,0.82,2.578,5.871,2.578c4.566,0,5.678-2.157,5.867-2.64c-0.135-1.79-2.746-3.275-5.832-3.287l1.086,2.324
		c0.246,0.525,0.018,1.147-0.506,1.393c-0.525,0.245-1.148,0.018-1.391-0.505l-1.385-2.962
		C306.168,82.442,304.625,83.654,304.568,85.037z M253.211,75.746c-0.867,0-1.721,0.132-2.479,0.48
		c-1.195,0.547-1.984,1.565-2.408,3.114c-0.447,1.636-0.289,2.997,0.484,4.164c1.305,1.967,4.016,2.896,5.58,3.287
		c-0.014-2.555,0.391-5.394,1.705-7.99l0.525-2.512C255.627,76,254.411,75.746,253.211,75.746z M297.022,84.072h5.587
		c0.496-1.868,2.307-3.377,4.766-4.069l-5.324-11.398c-2.891,2.119-5.332,3.669-6.369,4.309v8.228
		C296.28,82.028,296.735,83.016,297.022,84.072z M274.163,65.666c-0.426,0-0.826,0.167-1.123,0.471
		c-0.299,0.306-0.457,0.708-0.445,1.136l0.02,0.915c0.795-0.114,1.615-0.172,2.445-0.172h1.258l-0.111-2.348l-2.041-0.001
		C274.163,65.666,274.163,65.666,274.163,65.666z M290.506,38.947l12.341,26.417c4.689-3.64,9.881-8.416,11.766-12.89
		c3.074-7.302,4.975-18.396-3.426-29.787c-4.033-5.468-8.385-7.358-11.326-7.982c-3.078-0.651-6.408,0.046-9.14,1.917
		c-2.029,1.39-3.332,2.957-3.875,4.656c-1.406,4.41-1.428,6.321-0.48,8.663l0.326-0.155c0.252-0.12,0.539-0.135,0.801-0.043
		c0.262,0.094,0.477,0.287,0.596,0.536l3.367,7.055c0.119,0.251,0.135,0.539,0.041,0.801c-0.092,0.262-0.285,0.477-0.533,0.596
		L290.506,38.947z M285.899,32.484l2.465,5.165l0.752-0.359l-2.467-5.165l-0.334,0.161c-0.005,0.002-0.01,0.004-0.014,0.008
		c-0.008,0.001-0.012,0.005-0.018,0.008L285.899,32.484z"/>
	<g>
		<path fill="#FFFFFF" d="M103.457,72.001c-0.221,0.581-0.332,1.162-0.608,1.848c-1.66,4.064-4.647,9.501-8.687,10.187
			c-3.983,0.686-5.92-1.478-5.035-6.07c0.221-1.161,0.664-3.483,0.94-4.645l0.719-3.062c-1.217,2.797-2.601,5.911-3.486,7.23
			c-3.209,4.804-4.592,5.542-8.299,4.592c-2.766-0.686-1.106-11.875-0.442-15.358c-0.499,1.108-1.106,2.586-1.66,4.328
			c-4.039,11.664-6.141,13.036-9.35,12.562c-2.545-0.37-3.597-2.059-3.873-3.854c-1.494-0.105-3.209-0.474-4.979-0.949
			c-3.154-0.897-5.644-2.376-8.023-3.748c-2.766-1.583-4.813-2.27-7.524-2.27c-0.664,0-1.66,0.37-2.158,0.897
			c-0.775,0.687-1.383,1.53-1.992,2.27c-0.221,0.264-0.442,0.527-0.719,0.792c-0.332,0.316-0.885,0.21-1.217-0.211
			c-0.554-0.581-0.609-1.215-0.166-1.795c0.166-0.316,0.332-0.581,0.608-0.792c0.885-0.685,1.825-1.425,2.877-1.953
			c2.601-1.267,7.635,0.317,9.406,1.32c3.043,1.478,5.976,3.536,9.074,4.274c1.494,0.37,3.153,0.687,4.703,0.792
			c0-1.003,0.221-1.953,0.443-2.639c1.328-3.801,7.69-3.588,6.086,1.214c-0.608,1.848-2.379,2.691-4.758,2.85
			c0.277,1.32,0.996,2.429,2.656,2.692c1.217,0.211,2.103-0.105,3.265-1.848c1.992-3.22,3.485-7.97,4.26-10.081
			c1.272-3.536,2.379-6.175,3.375-8.392c0.774-1.795,3.873-1.848,3.873-0.634c0,2.692-1.107,7.917-1.273,10.715
			c-0.276,4.275-0.221,7.653,0.664,8.181c2.655,1.636,8.742-12.403,9.849-16.15c0.11-0.37,0.276-0.687,0.498-0.95
			c0.11-0.211,0.221-0.316,0.332-0.37c1.328-0.58,2.656,0.106,2.656,1.479c0,2.164-0.72,5.806-1.162,8.128
			c-0.553,2.851-1.272,6.809-1.328,7.601c-0.11,1.583,1.051,1.953,1.604,1.953c1.051,0,2.269-0.792,3.652-2.429
			c0.94-1.108,3.154-5.225,4.26-7.97c0.221-0.527,0.553-0.527,0.719-0.475C103.568,71.368,103.568,71.685,103.457,72.001z
			 M65.613,76.276c-0.221,0.634-0.387,1.373-0.387,2.111c1.881-0.053,3.319-0.633,3.651-1.9
			C69.541,73.849,66.276,74.165,65.613,76.276z"/>
		<path fill="#FFFFFF" d="M105.28,83.402c-0.775-0.476-1.494-1.742-1.771-2.429c-1.162-3.166-0.277-7.441,1.051-10.608
			c0.941-2.322,2.933-4.908,4.537-6.069c2.269-1.531,4.316-2.164,5.92-0.581c2.103,2.059-0.333,5.015-2.545,6.861
			c-1.383,1.161-3.043,2.428-4.481,3.325c-0.498,0.37-0.719,0.845-0.774,1.425c0,1.056-0.056,1.953,0.055,3.378
			c0,1.161,0.553,2.957,1.715,3.378c3.154,1.108,7.524-3.905,9.793-8.181c0.83-1.53,1.106-2.902,1.494-3.272
			c0.498-0.475,0.83-0.211,0.886-0.158c0.11,0.158,0.11,0.423,0.055,0.687c-0.332,0.897-0.719,1.53-1.328,2.902
			c-0.442,1.003-0.996,2.375-1.826,3.695c-2.323,3.536-4.26,5.488-7.746,6.333C109.263,84.352,106.718,84.299,105.28,83.402z
			 M110.813,70.418c1.162-1.056,2.269-1.848,3.043-3.22c0.719-1.108,0.387-2.375-0.553-2.85c-1.494-0.739-2.988,0.633-3.707,1.688
			c-1.217,1.584-1.604,2.745-2.158,4.592c-0.111,0.265-0.332,1.319-0.055,1.479C107.991,72.477,109.706,71.315,110.813,70.418z"/>
		<path fill="#FFFFFF" d="M122.542,83.402c-0.996-0.739-1.494-1.953-1.992-3.643c-0.774-2.639-0.664-6.333,0.664-9.447
			c1.051-2.533,2.379-5.226,6.086-7.178c0.941-0.476,1.604-0.739,2.711-0.634c1.438,0.105,2.877,1.372,2.766,2.798
			c-0.055,0.633-0.166,1.055-0.498,1.425c-0.332,0.316-0.498,0.316-0.664,0.264c-0.332-0.158-0.332-0.264-0.222-0.845
			c0.166-0.58,0.388-1.319,0-1.583c-0.608-0.422-1.383-0.316-2.379,0.158c-2.435,1.267-4.094,6.176-4.537,9.818
			c-0.387,3.167-0.608,6.808,0.775,7.969c1.494,1.267,4.703-1.267,6.086-3.959c1.438-2.744,2.767-8.497,2.103-13.089
			c-0.664-4.697-6.805-10.926-6.805-14.726c0-2.798,2.213-5.965,6.252-4.856s5.422,7.39,8.687,7.39c2.933,0,3.651-2.164,4.924-4.012
			c0.83-1.214,1.605-0.686,1.162,0.423c-0.498,1.267-2.711,6.175-6.916,5.858c-5.201-0.369-6.529-5.436-8.133-7.178
			c-1.604-1.742-4.979-1.479-4.869,2.48c0.111,3.958,6.418,8.867,6.916,14.462c0.498,5.595-0.664,10.239-1.881,13.829
			c-0.553,1.583-1.992,3.536-3.651,4.433C126.857,84.827,123.98,84.511,122.542,83.402z"/>
		<path fill="#FFFFFF" d="M140.578,83.402c-0.775-0.476-1.494-1.742-1.771-2.429c-1.162-3.166-0.277-7.441,1.051-10.608
			c0.94-2.322,2.932-4.908,4.537-6.069c2.269-1.531,4.316-2.164,5.92-0.581c2.104,2.059-0.332,5.015-2.545,6.861
			c-1.383,1.161-3.043,2.428-4.481,3.325c-0.499,0.37-0.719,0.845-0.774,1.425c0,1.056-0.056,1.953,0.055,3.378
			c0,1.161,0.553,2.957,1.715,3.378c3.153,1.108,7.524-3.905,9.793-8.181c0.83-1.53,1.106-2.902,1.493-3.272
			c0.498-0.475,0.83-0.211,0.887-0.158c0.109,0.158,0.109,0.423,0.055,0.687c-0.332,0.897-0.719,1.53-1.328,2.902
			c-0.442,1.003-0.996,2.375-1.826,3.695c-2.323,3.536-4.26,5.488-7.746,6.333C144.561,84.352,142.016,84.299,140.578,83.402z
			 M146.11,70.418c1.162-1.056,2.269-1.848,3.042-3.22c0.719-1.108,0.387-2.375-0.553-2.85c-1.494-0.739-2.988,0.633-3.707,1.688
			c-1.217,1.584-1.604,2.745-2.158,4.592c-0.111,0.265-0.332,1.319-0.055,1.479C143.289,72.477,145.004,71.315,146.11,70.418z"/>
		<path fill="#FFFFFF" d="M169.569,77.966c0.221-1.161,0.664-3.483,0.939-4.645c0.498-2.059,1.052-4.486,1.439-6.439
			c0.387-2.164-1.051-4.012-2.213-2.533c-0.886,1.108-2.27,3.958-3.209,6.703c-4.039,11.664-6.143,13.247-9.352,12.562
			c-3.264-0.687-3.375-4.064-2.545-5.911c0.388-0.897,2.213-0.95,1.881,0.527c-0.441,2.006-0.663,3.8,1.107,4.275
			c1.217,0.316,2.103-0.105,3.264-1.848c1.992-3.22,3.486-7.97,4.261-10.081c1.328-3.167,2.712-6.228,3.485-7.283
			c1.328-1.689,4.039-2.375,5.699-0.158c2.103,2.797,1.051,6.438,0.442,9.447c-0.554,2.851-1.272,6.809-1.327,7.601
			c-0.111,1.583,1.051,1.953,1.604,1.953c1.052,0,2.048-0.792,3.431-2.429c0.94-1.108,3.265-5.225,4.372-7.97
			c0.221-0.527,0.553-0.527,0.719-0.475c0.332,0.105,0.332,0.475,0.221,0.792c-0.221,0.58-0.443,0.949-0.719,1.636
			c-1.66,4.064-4.427,9.659-8.465,10.345C170.62,84.722,168.683,82.558,169.569,77.966z"/>
		<path fill="#FFFFFF" d="M196.844,80.815c-0.166-2.059-0.223-4.75,0.221-9.184c0-0.158,0-0.369-0.166-0.422
			c-0.111-0.053-0.332,0-0.498,0.211c-0.941,1.108-1.882,3.009-2.6,4.17c-0.664,1.214-0.996,1.794-1.551,2.902
			c-0.94,1.795-1.77,3.009-2.82,3.906c-0.941,0.897-2.324,1.267-2.822,1.372c-2.379,0.475-3.762-0.792-3.762-1.848
			c-0.057-3.958,1.105-8.286,1.77-11.506c0.277-1.425,1.107-4.908,1.715-6.387c0.111-0.316,0.389-0.844,1.162-1.002
			c0.775-0.159,1.273-0.212,1.715,0.475c0.277,0.687,0.443,2.059,0.389,2.639c-0.223,2.587-1.162,7.442-1.661,9.712
			c-0.331,1.688-0.663,4.645-0.276,5.278c0.276,0.264,0.442,0.264,0.719,0.105c1.053-0.528,1.66-1.479,2.767-3.378
			c0.886-1.584,2.657-4.697,3.983-6.966c0.498-0.845,1.66-3.696,2.988-5.49c0.332-0.476,0.775-1.108,1.051-1.584
			c0.277-0.475,1.494-0.58,1.826-0.264c0.387,0.316,0.719,0.845,0.719,1.372c-0.221,5.858-0.719,7.601-1.051,11.506
			c-0.275,3.114-0.055,4.646,0.885,5.489c1.883,1.584,7.746-1.688,11.619-4.274c3.984-2.587,8.854-8.762,12.117-9.554
			c2.49-0.634,4.537-0.687,6.031,0.792c1.273,1.214,1.494,4.328,0,4.328c-1.217,0.211-2.102-1.795-2.545-2.956
			c-0.333-0.897-1.439-1.319-3.154-0.687c-2.6,0.845-6.805,6.914-15.713,12.351c-2.213,1.373-7.469,3.854-11.176,2.006
			C197.452,83.297,196.954,82.029,196.844,80.815z"/>
	</g>
</g>
</svg>
