<?xml version="1.0" encoding="utf-8"?>
<!-- Generator: Adobe Illustrator 16.0.0, SVG Export Plug-In . SVG Version: 6.00 Build 0)  -->
<!DOCTYPE svg PUBLIC "-//W3C//DTD SVG 1.1//EN" "http://www.w3.org/Graphics/SVG/1.1/DTD/svg11.dtd">
<svg version="1.1" id="Слой_1" xmlns="http://www.w3.org/2000/svg" xmlns:xlink="http://www.w3.org/1999/xlink" x="0px" y="0px"
	 width="200px" height="70px" viewBox="0 0 200 70" enable-background="new 0 0 200 70" xml:space="preserve">
<g display="none">
</g>
<text transform="matrix(0.8628 -0.0518 -0.0541 0.9985 100.9355 35.875)"><tspan x="0" y="0" fill="#F7931E" font-family="'BrushScriptMT'" font-size="45.0473">B</tspan><tspan x="24.856" y="0" fill="#009245" font-family="'BrushScriptMT'" font-size="45.0473">jic</tspan></text>
<g>
	<g>
		<g>
			<path fill="#414042" d="M71.812,3.095c-6.357-0.081-12.507,2.662-16.503,7.327c-4.579,5.346-5.874,12.755-3.335,19.209
				c2.68,6.811,9.339,11.805,16.977,12.699c7.363,0.861,14.791-2.13,19.252-7.722c4.406-5.524,5.404-13.04,2.572-19.415
				c-2.357-5.308-7.188-9.477-13.006-11.202C75.843,3.421,73.83,3.121,71.812,3.095z M89.591,31.423
				c-1.624,3.193-4.435,5.922-7.63,7.744c-3.117,1.776-6.722,2.727-10.362,2.737c-4.157,0.013-8.269-1.203-11.671-3.457
				c-3.254-2.155-5.812-5.218-7.262-8.713c-2.686-6.479-1.334-14.006,3.423-19.3c4.146-4.613,10.48-7.143,16.875-6.718
				c6.165,0.409,11.893,3.559,15.352,8.39c3.882,5.422,4.539,12.537,1.687,18.512C89.872,30.889,89.735,31.158,89.591,31.423
				C89.556,31.493,90.95,28.903,89.591,31.423z"/>
		</g>
		<g>
			<path fill="#414042" d="M91.198,23.038c-0.106,7.474-5.131,14.324-12.499,17.049c-7.312,2.706-15.854,0.938-21.31-4.39
				c-2.8-2.734-4.671-6.266-5.292-10.024c-0.592-3.576-0.061-7.297,1.531-10.59c2.627-5.438,8.021-9.444,14.245-10.55
				c6.203-1.102,12.718,0.723,17.271,4.849C89.056,12.925,91.271,17.92,91.198,23.038z"/>
		</g>
		<g>
			<path fill="#414042" d="M71.84,1.1c-6.212-0.079-12.279,2.283-16.643,6.455c-4.459,4.262-6.887,10.183-6.613,16.17
				c0.342,7.488,4.917,14.421,11.854,18.049c6.013,3.146,13.397,3.554,19.758,1.097c5.623-2.172,10.204-6.465,12.542-11.759
				c2.421-5.479,2.324-11.812-0.265-17.222c-2.501-5.229-7.207-9.402-12.896-11.418C77.106,1.596,74.478,1.134,71.84,1.1z
				 M71.243,42.938c-7.604-0.097-14.724-4.147-18.402-10.43c-3.602-6.152-3.494-13.845,0.274-19.901
				c3.165-5.085,8.66-8.698,14.821-9.689C74.146,1.919,80.62,3.611,85.402,7.48c4.7,3.805,7.472,9.454,7.472,15.304
				c-0.001,7.266-4.292,14.109-11.015,17.635C78.625,42.115,74.942,42.986,71.243,42.938z"/>
		</g>
	</g>
	<path fill="#414042" d="M82.196,23.906c-0.629-2.586-1.948-5.067-3.585-7.21c-0.896-1.173-1.909-2.251-3.046-3.22
		c-1.071-0.912-2.23-1.67-3.438-2.408c1.243,0.695,2.436,1.412,3.549,2.288c1.19,0.937,2.261,1.989,3.216,3.142
		c1.774,2.14,3.211,4.629,3.974,7.259C82.643,23.806,82.419,23.856,82.196,23.906z"/>
	<path fill="#414042" d="M69.554,19.326c-0.427-1.293-1.145-2.576-2.018-3.65c-1.001-1.23-2.145-2.198-3.48-3.094
		c1.415,0.715,2.652,1.628,3.61,2.857C68.546,16.568,69.322,17.926,69.554,19.326z"/>
	<path fill="#414042" d="M66.293,28.545c-0.732-3.068-1.59-6.108-3.113-8.919c0.958,1.353,1.665,2.844,2.143,4.408
		C65.772,25.506,66.151,27.016,66.293,28.545z"/>
	<path fill="#414042" d="M84.419,22.997c-0.182-0.63-0.372-1.244-0.612-1.855c-0.341-0.873-0.805-1.691-1.273-2.508
		c-0.878-1.36-1.84-2.639-2.885-3.889c1.095,1.219,2.105,2.471,3.034,3.806c0.479,0.774,0.97,1.55,1.33,2.382
		c0.281,0.651,0.517,1.303,0.737,1.974C84.64,22.937,84.529,22.966,84.419,22.997z"/>
	<g>
		<path fill="#414042" d="M59.343,11.929l0.213-1.128l0.181,1.133c0.031,0.194,0.222,0.378,0.425,0.413l1.194,0.202l-1.199,0.171
			c-0.205,0.029-0.401,0.209-0.437,0.402l-0.213,1.127l-0.181-1.133c-0.031-0.193-0.222-0.378-0.426-0.413l-1.194-0.201l1.199-0.171
			C59.111,12.301,59.306,12.121,59.343,11.929z"/>
	</g>
	<g>
		<g>
			<path fill="#F7931E" d="M88.279,15.99c-2.578-2.365-6.286-2.962-8.862-3.085c0-0.021,0.021-0.031,0.021-0.051
				c0-2.448-3.422-4.366-7.787-4.366c-4.364,0-7.787,1.918-7.787,4.366c0,0.021,0.022,0.03,0.022,0.051
				c-2.577,0.125-6.278,0.723-8.863,3.085c-3.583,3.293-3.831,6.136-0.781,8.949c0.908,0.828,2.341,1.935,4.288,1.935
				c1.451,0,2.949-0.649,4.546-1.908c-0.066,0.609-0.147,1.198-0.147,1.908c0,7.475,7.825,13.376,8.156,13.626
				c0.168,0.124,0.365,0.182,0.565,0.182c0.201,0,0.398-0.059,0.565-0.182c0.331-0.25,8.156-6.151,8.156-13.626
				c0-0.71-0.08-1.299-0.146-1.908c1.598,1.259,3.095,1.908,4.546,1.908c1.947,0,3.381-1.108,4.289-1.935
				C92.11,22.125,91.862,19.281,88.279,15.99z M71.652,10.127c3.536,0,5.998,1.433,5.998,2.723c0,0.004,0.004,0.004,0.004,0.009
				c-0.527,0.016-0.911,0.04-0.911,0.04c-0.419,0.044-0.756,0.348-0.799,0.732c-0.02,0.152-0.208,2.205,0.274,4.631
				c-1.465-0.68-3.107-0.85-4.565-0.85c-1.458,0-3.099,0.17-4.565,0.85c0.484-2.427,0.295-4.479,0.275-4.631
				c-0.043-0.384-0.38-0.688-0.797-0.732c0,0-0.386-0.025-0.913-0.04c0-0.004,0.005-0.004,0.005-0.009
				C65.653,11.561,68.116,10.127,71.652,10.127z M76.584,33.115c-0.02,0-0.027-0.016-0.043-0.016h-9.777
				c-0.019,0-0.03,0.016-0.049,0.02c-0.708-1.154-1.287-2.417-1.636-3.761h13.146C77.87,30.7,77.292,31.961,76.584,33.115z
				 M64.812,27.715c-0.026-0.28-0.091-0.558-0.091-0.841c0-1.139,0.122-2.065,0.29-2.901h13.286
				c0.165,0.836,0.288,1.762,0.288,2.901c0,0.282-0.067,0.561-0.089,0.841H64.812z M77.78,22.328H65.524
				c0.246-0.399,0.488-0.801,0.678-1.217c1.308-1.691,3.323-2.055,5.452-2.055c2.132,0,4.145,0.364,5.453,2.055
				C77.292,21.527,77.533,21.929,77.78,22.328z M62.729,23.06c-1.573,1.442-2.984,2.176-4.199,2.176
				c-0.977,0-1.939-0.466-3.021-1.459c-1.553-1.43-2.904-3.242,0.782-6.625c2.526-2.319,6.595-2.667,8.795-2.667
				c0.2,0,0.379,0.006,0.536,0.008c0.035,1.169-0.052,3.622-1.038,5.873c-0.311,0.441-0.598,0.926-0.835,1.504
				C63.456,22.291,63.127,22.696,62.729,23.06z M71.652,38.772c-0.821-0.689-2.387-2.132-3.828-4.03h7.651
				C74.036,36.637,72.469,38.083,71.652,38.772z M87.793,23.776c-1.082,0.993-2.043,1.459-3.021,1.459
				c-1.214,0-2.626-0.733-4.198-2.176c-0.397-0.364-0.725-0.769-1.02-1.188c-0.237-0.576-0.522-1.063-0.835-1.504
				c-0.986-2.251-1.074-4.707-1.038-5.872c1.883-0.049,6.573,0.124,9.332,2.657C90.695,20.534,89.347,22.347,87.793,23.776z"/>
			<ellipse fill="#F7931E" cx="68.942" cy="6.228" rx="1.549" ry="1.422"/>
			<path fill="#F7931E" d="M74.362,4.806c0.855,0,1.549,0.637,1.549,1.422c0,0.785-0.694,1.421-1.549,1.421
				c-0.856,0-1.55-0.637-1.55-1.421C72.812,5.443,73.506,4.806,74.362,4.806z"/>
		</g>
	</g>
</g>
<g display="none">
</g>
<text transform="matrix(1 0 0 1 23 60)" font-family="'BradleyHandITCTT-Bold'" font-size="18">УБОРКА КВАРТИР</text>
</svg>
